<svg width="60" height="64" viewBox="0 0 60 64" fill="none" xmlns="http://www.w3.org/2000/svg">
<rect y="4" width="60" height="60" rx="4" fill="#B955D2"/>
<rect width="60" height="60" rx="4" fill="url(#paint0_linear_152_2536)"/>
<path d="M44.512 39.3333C44.7237 38.2094 44.7183 37.0553 44.496 35.9333L47.5493 28.5647C47.5496 28.5598 47.5496 28.5549 47.5493 28.55C48.0441 27.1954 48.7692 25.9364 49.6926 24.8287C49.9224 24.586 50.0148 24.2441 49.9386 23.9187L48.6866 18.512C48.6717 18.4555 48.6493 18.4012 48.62 18.3507C48.6146 18.3407 48.6126 18.3287 48.6073 18.3193C48.602 18.31 48.5786 18.2873 48.5653 18.27C48.538 18.2301 48.5065 18.1932 48.4713 18.16C48.4481 18.1437 48.4238 18.129 48.3986 18.116C48.3661 18.0921 48.3315 18.0711 48.2953 18.0533C48.245 18.0344 48.1927 18.0216 48.1393 18.0153C48.124 18.0153 48.1106 18.0053 48.0953 18.004C47.9675 17.9955 47.84 18.024 47.728 18.086C47.718 18.0913 47.706 18.0933 47.696 18.0993H47.6893L42.982 21.0373C42.6969 21.2139 42.5199 21.5221 42.5113 21.8573C42.3805 23.2968 42.0014 24.7027 41.3906 26.0127V26.02L39.8646 29.7087C39.1157 29.3105 38.3138 29.0209 37.4833 28.8487C37.7977 26.6786 37.9133 24.4844 37.8286 22.2933C39.0696 20.8044 39.6652 18.8818 39.4833 16.952C39.0666 13.0667 35.5553 10.2607 35.4053 10.1427C35.1799 9.96513 34.8661 9.95177 34.6264 10.1095C34.3867 10.2673 34.2748 10.5607 34.3486 10.838C34.692 12.1273 34.3946 13.488 31.8586 16.286C30.7192 17.3862 30.3581 19.0661 30.9446 20.5373C31.1689 21.1001 31.4902 21.6191 31.894 22.0707C31.7326 23.1007 31.606 24.076 31.5186 25.026C31.3683 26.5973 31.3295 28.1772 31.4026 29.754C30.8079 30.0764 30.2511 30.4644 29.7426 30.9107L26.5093 17.084C26.5093 17.07 26.496 17.06 26.492 17.0473C26.4811 17.0029 26.4655 16.9597 26.4453 16.9187L23.1426 10.8193C22.8121 10.2088 22.1139 9.89514 21.4379 10.0534C20.762 10.2118 20.2757 10.8029 20.2506 11.4967L20 18.4267C20.0001 18.4767 20.0057 18.5265 20.0166 18.5753C20.0166 18.586 20.0166 18.5953 20.0166 18.6053L23.3153 32.6833C22.7949 32.7063 22.2784 32.7834 21.774 32.9133L18.1453 24.15C17.8543 23.4801 17.0826 23.164 16.4053 23.4373L10.8593 25.7333C10.1805 26.0167 9.85798 26.7949 10.1373 27.4753L15.0586 39.3473C12.1743 39.4988 9.93541 41.92 10.0099 44.8074C10.0843 47.6947 12.445 49.9974 15.3333 50H44.6666C46.572 49.9724 48.318 48.9303 49.2468 47.2664C50.1755 45.6024 50.1461 43.5694 49.1694 41.933C48.1928 40.2967 46.4174 39.3057 44.512 39.3333ZM43.8326 22.0773L46.6273 20.3333L45.638 22.7227C45.4969 23.0629 45.6584 23.453 45.9986 23.594C46.3388 23.735 46.729 23.5735 46.87 23.2333L47.8593 20.844L48.6 24.0527C47.8075 25.0194 47.1566 26.094 46.6666 27.244C45.9716 27.5662 45.1734 27.5829 44.4655 27.2901C43.7575 26.9973 43.2044 26.4217 42.94 25.7027C43.4082 24.5427 43.7088 23.322 43.8326 22.0773ZM42.2993 27.3113C42.7403 27.8505 43.3127 28.2672 43.9613 28.5213C44.4769 28.7431 45.0314 28.86 45.5926 28.8653C45.7277 28.8648 45.8625 28.8566 45.9966 28.8407L43.8693 33.974C43.2323 32.5695 42.2469 31.3512 41.0066 30.4347L42.2993 27.3113ZM33.166 22.55L36.5153 22.7547C36.536 23.3773 36.5286 24.0213 36.508 24.6753C35.3922 24.7551 34.2709 24.7009 33.168 24.514C33.084 24.502 33.002 24.4927 32.9186 24.4813C32.9853 23.8533 33.0666 23.2173 33.1646 22.55H33.166ZM32.848 17.1813C34.618 15.2287 35.5353 13.7267 35.7486 12.3147C37.0209 13.6237 37.8607 15.2917 38.1546 17.0933C38.2946 18.6617 37.8097 20.222 36.8053 21.4347C35.4884 21.3547 34.186 21.2747 32.898 21.1947C32.3445 20.6773 32.0262 19.9565 32.0165 19.1989C32.0068 18.4414 32.3066 17.7127 32.8466 17.1813H32.848ZM32.7973 25.81L32.9906 25.8353C33.8497 25.9682 34.7168 26.0419 35.586 26.056C35.862 26.056 36.1526 26.034 36.444 26.0113C36.3833 26.8693 36.284 27.7653 36.158 28.6913C35.9933 28.6827 35.832 28.6667 35.6666 28.6667C34.6601 28.6685 33.6611 28.8405 32.712 29.1753C32.6812 28.0529 32.7093 26.9295 32.796 25.81H32.7973ZM27.6406 33.606L25.7333 25.4813C25.6441 25.1288 25.289 24.9128 24.935 24.9957C24.581 25.0786 24.3587 25.4299 24.4353 25.7853L26.1493 33.098C25.6781 32.9295 25.1912 32.8082 24.696 32.736L21.77 20.2493C22.1799 20.436 22.6249 20.5328 23.0753 20.5333C23.1173 20.5333 23.162 20.5273 23.2046 20.5253L23.676 22.538C23.7268 22.7736 23.9007 22.9634 24.131 23.0345C24.3613 23.1056 24.612 23.0469 24.7867 22.8809C24.9615 22.715 25.0331 22.4676 24.974 22.234L24.502 20.22C24.9543 20.0198 25.3532 19.716 25.6666 19.3333L28.6413 32.0527C28.255 32.5345 27.9197 33.0551 27.6406 33.606ZM23.5673 19.1393C22.7147 19.3047 21.8442 18.9561 21.3413 18.248L21.426 15.9C21.6579 15.9433 21.8933 15.9656 22.1293 15.9667C22.3572 15.9676 22.5845 15.9423 22.8066 15.8913C23.2564 15.7732 23.6771 15.564 24.0426 15.2767L25.1653 17.3487C25.0315 18.2083 24.4061 18.9097 23.5673 19.1407V19.1393ZM21.7413 11.3513C21.8321 11.3303 21.9258 11.3723 21.9706 11.454L23.4 14.0973C23.1421 14.3306 22.8342 14.5016 22.5 14.5973C22.1583 14.66 21.8068 14.6434 21.4726 14.5487L21.5813 11.5447C21.5849 11.4515 21.6505 11.3723 21.7413 11.3513ZM16.9166 24.6667L17.426 25.8973L14.9593 26.9187C14.6669 27.0415 14.5014 27.3533 14.5637 27.6643C14.626 27.9753 14.8988 28.1993 15.216 28.2C15.3036 28.1998 15.3903 28.1826 15.4713 28.1493L17.938 27.1273L18.448 28.3593L17.214 28.8707C16.9199 28.9924 16.7528 29.305 16.8151 29.6171C16.8774 29.9293 17.1517 30.1538 17.47 30.1533C17.5573 30.153 17.6438 30.1358 17.7246 30.1027L18.9586 29.5913L19.4686 30.8233L17 31.8467C16.7059 31.9684 16.5388 32.281 16.6011 32.5931C16.6634 32.9053 16.9377 33.1298 17.256 33.1293C17.3433 33.1291 17.4298 33.1119 17.5106 33.0787L19.9773 32.0573L20.5166 33.3593C18.3442 34.3509 16.7512 36.2898 16.2 38.6133L11.368 26.9627L16.9166 24.6667ZM44.6666 48.6667H15.3333C13.1242 48.6667 11.3333 46.8758 11.3333 44.6667C11.3333 42.4575 13.1242 40.6667 15.3333 40.6667C15.7196 40.6654 16.1039 40.7211 16.474 40.832C16.6739 40.8924 16.8905 40.8556 17.0593 40.7327C17.2281 40.6097 17.3295 40.4148 17.3333 40.206C17.3807 37.83 18.7542 35.6806 20.8904 34.6394C23.0266 33.5981 25.5658 33.8403 27.4666 35.2667C27.6346 35.3917 27.8515 35.4305 28.0525 35.3715C28.2534 35.3126 28.4149 35.1626 28.4886 34.9667C29.7911 31.4955 33.3909 29.4536 37.0386 30.1171C40.6862 30.7805 43.3365 33.9591 43.3333 37.6667C43.3346 38.4291 43.2211 39.1874 42.9966 39.916C42.9266 40.1427 42.9823 40.3895 43.1429 40.5642C43.3035 40.7388 43.5449 40.8149 43.7766 40.764C44.0689 40.6997 44.3673 40.667 44.6666 40.6667C46.8758 40.6667 48.6666 42.4575 48.6666 44.6667C48.6666 46.8758 46.8758 48.6667 44.6666 48.6667Z" fill="white"/>
<path d="M35.79 20.4667C35.9992 20.4675 36.1967 20.37 36.3233 20.2034C37.1556 19.0769 37.4773 17.6529 37.21 16.278C37.1531 16.0429 36.9734 15.8571 36.7404 15.7924C36.5073 15.7277 36.2575 15.7943 36.0876 15.9664C35.9177 16.1385 35.8543 16.3892 35.922 16.6214C36.0816 17.5983 35.8434 18.5985 35.2607 19.3987C35.1091 19.6007 35.0848 19.871 35.1977 20.0968C35.3106 20.3227 35.5415 20.4654 35.794 20.4654L35.79 20.4667Z" fill="white"/>
<path d="M34.9133 40.6667C34.4176 40.6683 33.9286 40.7822 33.4833 41.0001C32.284 39.359 30.0447 38.8783 28.2775 39.8825C26.5104 40.8867 25.7773 43.0565 26.5733 44.9267C26.678 45.1725 26.9194 45.3321 27.1866 45.3321C27.2765 45.3323 27.3654 45.3141 27.448 45.2787C27.6106 45.2094 27.7391 45.0783 27.8051 44.9143C27.8711 44.7503 27.8693 44.5667 27.8 44.4041C27.6548 44.0658 27.58 43.7015 27.58 43.3334C27.58 41.8606 28.7739 40.6667 30.2466 40.6667C31.281 40.6616 32.223 41.261 32.6566 42.2001C32.6711 42.2218 32.6866 42.2427 32.7033 42.2627C32.7138 42.2856 32.7256 42.3079 32.7386 42.3294C32.7506 42.3441 32.768 42.3507 32.7813 42.3647C32.8126 42.3972 32.8472 42.4263 32.8846 42.4514C32.9179 42.477 32.9537 42.4994 32.9913 42.5181C33.03 42.5343 33.0702 42.5468 33.1113 42.5554C33.1523 42.5662 33.1943 42.5726 33.2366 42.5747C33.3232 42.574 33.4092 42.5596 33.4913 42.5321C33.5091 42.5288 33.5266 42.5246 33.544 42.5194C33.5656 42.5054 33.5863 42.49 33.606 42.4734C33.63 42.4627 33.6533 42.4507 33.676 42.4374C34.0261 42.1542 34.4629 41.9998 34.9133 42.0001C35.6928 42.0013 36.4005 42.4554 36.7266 43.1634C36.8794 43.4985 37.2749 43.6462 37.61 43.4934C37.945 43.3406 38.0928 42.9451 37.94 42.6101C37.3971 41.4268 36.2151 40.6679 34.9133 40.6667Z" fill="white"/>
<path d="M21.7893 36.0339C21.6886 36.0666 19.3333 36.8813 19.3333 39.3333C19.3333 39.7015 19.6318 39.9999 20 39.9999C20.3682 39.9999 20.6666 39.7015 20.6666 39.3333C20.7211 38.4033 21.333 37.5987 22.2146 37.2979C22.5644 37.1805 22.7528 36.8017 22.6353 36.4519C22.5179 36.1022 22.1391 35.9138 21.7893 36.0313V36.0339Z" fill="white"/>
<path d="M31.1713 35.3133C31.2243 35.3267 31.2787 35.3334 31.3333 35.3333C31.6388 35.3329 31.9051 35.125 31.9793 34.8286C32.2862 33.5837 33.3882 32.6982 34.67 32.6666C35.0382 32.6657 35.3359 32.3664 35.335 31.9983C35.3341 31.6301 35.0348 31.3323 34.6666 31.3333C32.7718 31.3584 31.1343 32.6632 30.6866 34.5046C30.5972 34.8617 30.8142 35.2238 31.1713 35.3133Z" fill="white"/>
<defs>
<linearGradient id="paint0_linear_152_2536" x1="30" y1="0" x2="30" y2="60" gradientUnits="userSpaceOnUse">
<stop stop-color="#F2BDFF"/>
<stop offset="1" stop-color="#CE77E4"/>
</linearGradient>
</defs>
</svg>
