<svg width="60" height="64" viewBox="0 0 60 64" fill="none" xmlns="http://www.w3.org/2000/svg">
<rect y="4" width="60" height="60" rx="4" fill="#CF8F2E"/>
<rect width="60" height="60" rx="4" fill="url(#paint0_linear_152_2546)"/>
<path d="M29.6383 43.8115C29.493 43.6662 29.2914 43.5825 29.0859 43.5825C28.8805 43.5825 28.6789 43.6661 28.5336 43.8115C28.3883 43.9567 28.3047 44.1583 28.3047 44.3638C28.3047 44.5701 28.3883 44.7708 28.5336 44.9161C28.6789 45.0622 28.8805 45.145 29.0859 45.145C29.2914 45.145 29.493 45.0622 29.6383 44.9161C29.7836 44.7708 29.8672 44.5693 29.8672 44.3638C29.8672 44.1583 29.7835 43.9567 29.6383 43.8115Z" fill="white"/>
<path d="M33.3579 36.6045V30.8559C33.3579 30.5964 33.229 30.3537 33.0139 30.2085C32.7989 30.0632 32.5257 30.0343 32.2848 30.1312L18.8229 35.5528H14.4869C12.0129 35.5528 10 37.5657 10 40.0399C10 42.5142 12.0129 44.527 14.4871 44.527H15.0034V49.2186C15.0034 49.65 15.3532 49.9999 15.7847 49.9999H18.974C19.4055 49.9999 19.7553 49.65 19.7553 49.2186V44.9039L32.2852 49.9434C32.3792 49.9813 32.4782 49.9999 32.5766 49.9999C32.7303 49.9999 32.883 49.9545 33.0141 49.866C33.2291 49.7208 33.3579 49.4781 33.3579 49.2187V43.4702C34.9246 43.1137 36.0979 41.7104 36.0979 40.0374C36.0979 38.3643 34.9246 36.961 33.3579 36.6045ZM18.1927 48.4374H16.5659V44.527H18.1928V48.4374H18.1927ZM18.1929 42.9645H14.4871C12.8744 42.9645 11.5625 41.6525 11.5625 40.0399C11.5625 38.4273 12.8744 37.1153 14.4871 37.1153H18.1932L18.1929 42.9645ZM31.7955 48.0623H31.7954L19.7557 43.2199V36.8616L28.3047 33.4186V41.1717C28.3047 41.6031 28.6544 41.953 29.0859 41.953C29.5174 41.953 29.8671 41.6031 29.8671 41.1717V32.7893L31.7955 32.0127V48.0623ZM33.3579 41.833V38.2416C34.0502 38.5439 34.5354 39.2349 34.5354 40.0373C34.5354 40.8397 34.0503 41.5306 33.3579 41.833Z" fill="white"/>
<path d="M43.551 39.2793H39.1277C38.6962 39.2793 38.3464 39.6291 38.3464 40.0605C38.3464 40.492 38.6962 40.8418 39.1277 40.8418H43.551C43.9824 40.8418 44.3322 40.492 44.3322 40.0605C44.3322 39.6291 43.9824 39.2793 43.551 39.2793Z" fill="white"/>
<path d="M39.9235 33.5544C39.6184 33.2494 39.1237 33.2494 38.8186 33.5544L37.2928 35.0802C36.9877 35.3853 36.9877 35.88 37.2928 36.1851C37.4454 36.3376 37.6454 36.414 37.8453 36.414C38.0452 36.414 38.2452 36.3376 38.3977 36.1851L39.9235 34.6594C40.2285 34.3543 40.2285 33.8596 39.9235 33.5544Z" fill="white"/>
<path d="M39.9808 45.3886L38.404 43.8118C38.099 43.5068 37.6043 43.5068 37.2991 43.8118C36.994 44.1168 36.994 44.6115 37.2991 44.9167L38.876 46.4935C39.0286 46.646 39.2285 46.7224 39.4284 46.7224C39.6283 46.7224 39.8283 46.646 39.9808 46.4935C40.2859 46.1885 40.2859 45.6938 39.9808 45.3886Z" fill="white"/>
<path d="M46.8749 10H32.3437C30.6206 10 29.2187 11.4019 29.2187 13.125V13.4375H16.0937C15.0598 13.4375 14.2188 14.2787 14.2188 15.3125V27.6562C14.2188 28.69 15.0598 29.5312 16.0937 29.5312H16.901V31.9271C16.901 32.2431 17.0914 32.5279 17.3833 32.6489C17.4799 32.6889 17.5814 32.7083 17.6821 32.7083C17.8854 32.7083 18.0852 32.6289 18.2347 32.4795L21.183 29.5312H36.7015C37.7354 29.5312 38.5765 28.69 38.5765 27.6562V25.3125H46.8749C48.5981 25.3125 49.9999 23.9106 49.9999 22.1875V13.125C49.9998 11.4019 48.5981 10 46.8749 10ZM37.014 27.6562C37.014 27.8286 36.8739 27.9687 36.7015 27.9687H20.8594C20.6522 27.9687 20.4534 28.0511 20.3069 28.1975L18.4636 30.041V28.75C18.4636 28.3186 18.1138 27.9687 17.6823 27.9687H16.0937C15.9214 27.9687 15.7812 27.8286 15.7812 27.6562V15.3125C15.7812 15.1401 15.9214 15 16.0937 15H29.2187V22.1875C29.2187 23.9106 30.6206 25.3125 32.3437 25.3125H37.014V27.6562ZM48.4374 22.1875C48.4374 23.049 47.7365 23.75 46.8749 23.75H32.3437C31.4822 23.75 30.7812 23.049 30.7812 22.1875V13.125C30.7812 12.2634 31.4822 11.5625 32.3437 11.5625H46.8749C47.7365 11.5625 48.4374 12.2634 48.4374 13.125V22.1875Z" fill="white"/>
<path d="M42.748 16.9798L37.4011 13.8928C37.1594 13.7532 36.8616 13.7532 36.6199 13.8928C36.3782 14.0323 36.2292 14.2903 36.2292 14.5694V20.7433C36.2292 21.0224 36.3782 21.2804 36.6199 21.4199C36.7407 21.4897 36.8756 21.5246 37.0105 21.5246C37.1454 21.5246 37.2803 21.4897 37.4011 21.4199L42.748 18.3329C42.9897 18.1933 43.1386 17.9354 43.1386 17.6563C43.1386 17.3772 42.9898 17.1193 42.748 16.9798ZM37.7917 19.3902V15.9226L40.7949 17.6564L37.7917 19.3902Z" fill="white"/>
<path d="M26.7588 18.2031H18.9463C18.5148 18.2031 18.165 18.553 18.165 18.9844C18.165 19.4158 18.5148 19.7656 18.9463 19.7656H26.7588C27.1903 19.7656 27.54 19.4158 27.54 18.9844C27.54 18.553 27.1903 18.2031 26.7588 18.2031Z" fill="white"/>
<path d="M27.3111 22.807C27.1658 22.6616 26.9643 22.5781 26.7588 22.5781C26.5533 22.5781 26.3518 22.6616 26.2064 22.807C26.0611 22.9523 25.9775 23.1539 25.9775 23.3594C25.9775 23.5648 26.0611 23.7664 26.2064 23.9116C26.3518 24.057 26.5533 24.1406 26.7588 24.1406C26.965 24.1406 27.1658 24.057 27.3111 23.9116C27.4564 23.7664 27.54 23.5648 27.54 23.3594C27.54 23.1539 27.4564 22.9523 27.3111 22.807Z" fill="white"/>
<path d="M23.8282 22.5781H18.9463C18.5148 22.5781 18.165 22.928 18.165 23.3594C18.165 23.7908 18.5148 24.1406 18.9463 24.1406H23.8282C24.2597 24.1406 24.6095 23.7908 24.6095 23.3594C24.6095 22.928 24.2597 22.5781 23.8282 22.5781Z" fill="white"/>
<defs>
<linearGradient id="paint0_linear_152_2546" x1="30" y1="0" x2="30" y2="60" gradientUnits="userSpaceOnUse">
<stop stop-color="#FCD498"/>
<stop offset="1" stop-color="#E99C28"/>
</linearGradient>
</defs>
</svg>
