<svg width="40" height="40" viewBox="0 0 40 40" fill="none" xmlns="http://www.w3.org/2000/svg">
<path d="M20 2.5C16.5388 2.5 13.1554 3.52636 10.2775 5.44928C7.39967 7.37221 5.15665 10.1053 3.83212 13.303C2.50758 16.5007 2.16102 20.0194 2.83627 23.4141C3.51151 26.8087 5.17822 29.9269 7.62564 32.3744C10.0731 34.8218 13.1913 36.4885 16.5859 37.1637C19.9806 37.839 23.4993 37.4924 26.697 36.1679C29.8947 34.8434 32.6278 32.6003 34.5507 29.7225C36.4737 26.8446 37.5 23.4612 37.5 20C37.4948 15.3603 35.6494 10.9122 32.3686 7.6314C29.0878 4.35065 24.6397 2.50523 20 2.5ZM5.00001 20C5.00132 17.8944 5.44741 15.8128 6.30906 13.8916C7.17071 11.9703 8.42848 10.2528 10 8.85138V11.25C10 11.913 10.2634 12.5489 10.7322 13.0178C11.2011 13.4866 11.837 13.75 12.5 13.75H16.7273C17.1917 13.7501 17.647 13.6207 18.042 13.3765C18.4371 13.1324 18.7563 12.7829 18.9639 12.3675L19.5228 11.25H22.5V16.25H16.5443C16.1565 16.2501 15.7741 16.3403 15.4273 16.5136L11.3819 18.5364C10.9667 18.744 10.6175 19.0631 10.3734 19.458C10.1294 19.8529 10.0001 20.3079 10 20.7721V25.404C10.0001 25.9036 10.1498 26.3918 10.4299 26.8055C10.7101 27.2192 11.1077 27.5395 11.5716 27.725L16.3825 29.65L17.2299 34.733C13.7954 34.0843 10.6947 32.2579 8.46223 29.5685C6.22977 26.8791 5.00536 23.4952 5.00001 20ZM19.8071 34.9902L18.6175 27.85L12.5 25.404V20.7728L16.5448 18.75H25V8.75H17.9773L16.7273 11.25H12.5V7.02938C14.403 5.92153 16.5273 5.24782 18.7209 5.05642C20.9146 4.86502 23.1234 5.16065 25.1895 5.92219C27.2556 6.68372 29.128 7.89234 30.6726 9.46163C32.2173 11.0309 33.3962 12.9221 34.125 15H27.5V20L28.653 24.7669L26.25 28.3716V33.6181C24.2915 34.5265 22.1589 34.9981 20 35C19.935 35 19.8721 34.9909 19.8071 34.9902ZM28.75 32.1583V29.1284L30.7324 26.1547C30.9258 25.8647 31.0565 25.5375 31.1161 25.194C31.1757 24.8505 31.1629 24.4984 31.0785 24.1601L30 19.8463V17.5H34.7741C35.2627 20.263 34.9558 23.108 33.8892 25.7033C32.8226 28.2986 31.0403 30.5372 28.75 32.1583Z" fill="#525252"/>
<path d="M20 2.5C16.5388 2.5 13.1554 3.52636 10.2775 5.44928C7.39967 7.37221 5.15665 10.1053 3.83212 13.303C2.50758 16.5007 2.16102 20.0194 2.83627 23.4141C3.51151 26.8087 5.17822 29.9269 7.62564 32.3744C10.0731 34.8218 13.1913 36.4885 16.5859 37.1637C19.9806 37.839 23.4993 37.4924 26.697 36.1679C29.8947 34.8434 32.6278 32.6003 34.5507 29.7225C36.4737 26.8446 37.5 23.4612 37.5 20C37.4948 15.3603 35.6494 10.9122 32.3686 7.6314C29.0878 4.35065 24.6397 2.50523 20 2.5ZM5.00001 20C5.00132 17.8944 5.44741 15.8128 6.30906 13.8916C7.17071 11.9703 8.42848 10.2528 10 8.85138V11.25C10 11.913 10.2634 12.5489 10.7322 13.0178C11.2011 13.4866 11.837 13.75 12.5 13.75H16.7273C17.1917 13.7501 17.647 13.6207 18.042 13.3765C18.4371 13.1324 18.7563 12.7829 18.9639 12.3675L19.5228 11.25H22.5V16.25H16.5443C16.1565 16.2501 15.7741 16.3403 15.4273 16.5136L11.3819 18.5364C10.9667 18.744 10.6175 19.0631 10.3734 19.458C10.1294 19.8529 10.0001 20.3079 10 20.7721V25.404C10.0001 25.9036 10.1498 26.3918 10.4299 26.8055C10.7101 27.2192 11.1077 27.5395 11.5716 27.725L16.3825 29.65L17.2299 34.733C13.7954 34.0843 10.6947 32.2579 8.46223 29.5685C6.22977 26.8791 5.00536 23.4952 5.00001 20ZM19.8071 34.9902L18.6175 27.85L12.5 25.404V20.7728L16.5448 18.75H25V8.75H17.9773L16.7273 11.25H12.5V7.02938C14.403 5.92153 16.5273 5.24782 18.7209 5.05642C20.9146 4.86502 23.1234 5.16065 25.1895 5.92219C27.2556 6.68372 29.128 7.89234 30.6726 9.46163C32.2173 11.0309 33.3962 12.9221 34.125 15H27.5V20L28.653 24.7669L26.25 28.3716V33.6181C24.2915 34.5265 22.1589 34.9981 20 35C19.935 35 19.8721 34.9909 19.8071 34.9902ZM28.75 32.1583V29.1284L30.7324 26.1547C30.9258 25.8647 31.0565 25.5375 31.1161 25.194C31.1757 24.8505 31.1629 24.4984 31.0785 24.1601L30 19.8463V17.5H34.7741C35.2627 20.263 34.9558 23.108 33.8892 25.7033C32.8226 28.2986 31.0403 30.5372 28.75 32.1583Z" fill="white"/>
</svg>
