<svg width="35" height="53" viewBox="0 0 35 53" fill="none" xmlns="http://www.w3.org/2000/svg">
<path d="M5.77027 44.1255C7.68977 46.5273 9.47624 49.1406 11.5668 51.3887C11.5668 51.408 11.5858 51.4272 11.6048 51.4464C12.0419 51.9268 12.7451 52.7146 13.4483 52.5224C13.8854 52.4071 14.2845 51.9268 14.6266 51.6577C15.1967 51.235 15.7859 50.8123 16.3941 50.4088C17.9715 49.3712 19.6629 48.5065 21.4684 48.0645C21.5254 48.0645 21.5634 48.0645 21.6204 48.0645C22.3806 48.103 23.1028 48.372 23.844 48.4296C24.4141 48.468 24.7942 48.2183 24.8513 47.6418C26.0106 46.0854 27.0178 44.4905 28.4242 43.1263C29.2034 42.3769 30.0396 41.7044 30.9138 41.1087C30.9329 41.1087 30.9329 41.0895 30.9519 41.0895C32.0732 40.3977 33.2705 39.8405 34.5058 39.4178C34.7528 39.3217 34.9239 38.9566 34.6768 38.7645C34.2777 38.4378 33.8976 38.0727 33.4795 37.8037C33.5175 37.7845 33.5365 37.7845 33.5745 37.7653C33.6696 37.7268 33.7076 37.65 33.7076 37.5731C33.7456 37.5347 33.7646 37.4963 33.7646 37.4386C33.9356 37.4002 34.0687 37.208 33.9546 36.9967C33.8786 36.8814 33.8026 36.7469 33.7266 36.6316H33.7456C33.8596 36.6316 33.8786 36.4779 33.8026 36.4202C33.7266 36.3626 33.6316 36.3434 33.5365 36.3241C33.3655 36.0551 33.1944 35.7669 33.0424 35.4979C32.8714 35.0367 32.5863 34.614 32.3202 34.1913C31.8071 33.365 31.2559 32.5772 30.7048 31.7894C29.5645 30.1753 28.4432 28.5805 27.3029 26.9664C26.2956 25.5445 25.3834 23.8536 24.1671 22.6046C23.5779 21.9897 22.5707 21.7399 22.0195 22.4317C20.6322 22.7968 19.3588 23.3732 18.2755 24.3724C17.8574 24.7567 17.3823 25.2179 16.9072 25.7174C15.5008 27.0817 14.2845 28.7726 13.6953 30.6173C11.9469 29.6181 9.59027 29.7142 7.70878 30.1369C5.1051 30.7326 2.78649 32.1161 0.524902 33.4803C0.277837 33.634 0.258832 33.9415 0.429877 34.1528C0.790971 34.5756 1.13306 34.9791 1.47515 35.4018C0.905001 35.6516 0.524901 36.0359 0.0877869 36.5355C0.011767 36.6316 -0.0452473 36.7853 0.0497775 36.9006C1.91226 39.3409 3.86977 41.7236 5.77027 44.1255ZM17.8004 48.5833C16.7551 49.1406 15.7669 49.7747 14.8356 50.4856C14.4555 50.7546 13.9424 51.3119 13.5243 51.504C13.2392 51.6193 12.9922 51.6001 12.7451 51.5232C12.7451 51.5232 12.7451 51.5232 12.7641 51.504C12.8591 51.3887 12.8591 51.2542 12.7641 51.1389C12.7641 51.1389 12.7641 51.1389 12.7451 51.1197C12.9161 51.0813 13.0682 50.966 13.1632 50.7931C13.3343 50.6201 13.4863 50.4664 13.6763 50.3127C14.0944 49.9476 14.5506 49.6402 15.0257 49.3519C15.8619 48.8524 16.7741 48.468 17.6864 48.1414C19.3208 47.5457 21.2023 46.7579 22.9888 46.9308C23.0268 46.9308 23.0458 46.9501 23.0838 46.9501C21.2213 47.1038 19.4729 47.7187 17.8004 48.5833ZM22.5897 47.8532C23.0458 47.7955 23.5209 47.7571 23.996 47.7571C24.034 47.8147 24.1291 47.8532 24.1861 47.8532C23.806 48.0261 23.1408 47.9492 22.5897 47.8532ZM24.7182 47.4497C24.6802 47.4304 24.6422 47.4304 24.5852 47.4497C24.6992 47.3151 24.7942 47.1806 24.9083 47.0461C24.8513 47.1806 24.7942 47.3151 24.7182 47.4497ZM33.6126 38.899C31.655 39.6676 29.8496 40.7436 28.2341 42.1079C27.3979 42.8188 26.5237 43.6451 25.7635 44.5482C25.8395 44.4137 25.9155 44.2792 25.9916 44.1639C26.5997 43.1839 27.2839 42.2616 28.0441 41.4161C29.3934 39.9174 30.9329 38.7837 32.7383 38.0535C32.9854 38.3802 33.2895 38.6492 33.6126 38.899ZM33.1184 37.4578C33.0424 37.477 32.9664 37.4963 32.9094 37.5155C32.8333 37.5155 32.7763 37.5347 32.7383 37.5731C30.8568 38.2072 29.2224 39.5331 27.8921 40.9742C26.6567 42.3 25.1173 44.1639 24.5282 46.0085C24.4902 45.9509 24.4522 45.8932 24.4141 45.8356C24.6612 44.8941 25.4024 43.8372 25.8015 43.2031C26.4287 42.2232 27.1319 41.3008 27.9491 40.4554C28.7093 39.6676 29.5455 38.9374 30.4387 38.3033C31.0279 37.8998 31.9211 37.1888 32.7573 36.843C32.8904 37.0543 33.0044 37.2465 33.1184 37.4578ZM17.6484 26.0057C17.9525 25.679 18.2565 25.3331 18.5796 25.0065C19.4348 24.3532 20.3661 23.7959 21.3734 23.3732C21.7534 23.2003 22.1906 23.0273 22.6467 22.8736C22.7987 22.8352 22.9508 22.816 23.1028 22.7775C23.0838 22.7583 23.0838 22.7391 23.0648 22.7391C24.1101 23.1811 25.1553 25.2371 25.6115 25.8904C26.4857 27.1201 27.3409 28.3691 28.2151 29.5989C29.0133 30.7518 29.8306 31.8855 30.6288 33.0384C30.6478 33.0576 30.6478 33.0768 30.6668 33.096C31.2749 34.2681 31.9211 35.421 32.5863 36.5547C31.9781 36.843 31.351 37.3233 31.0089 37.5539C29.7735 38.3417 28.6142 39.3025 27.626 40.3977C26.6567 41.4353 25.8205 42.6075 25.1363 43.8564C24.8703 44.356 24.4712 44.9901 24.2811 45.6242C23.844 44.9133 23.3879 44.2215 22.9508 43.5298C21.9625 41.9926 20.9552 40.4938 19.929 38.995C18.9407 37.5539 17.9335 36.132 16.9072 34.7293C16.09 33.6148 15.2728 32.2698 14.2845 31.2322C14.9307 29.1762 16.242 27.5813 17.6484 26.0057ZM13.9234 31.4243C14.6076 32.5964 15.6148 33.6917 16.3941 34.7677C17.3443 36.0551 18.2565 37.3618 19.1688 38.6876C20.081 40.0134 20.9742 41.3393 21.8485 42.6651C22.2476 43.28 22.6467 43.8949 23.0268 44.4905C23.2548 44.8556 23.5019 45.2207 23.73 45.605C23.806 45.7203 23.882 45.8548 23.958 45.9701C23.958 46.0085 23.977 46.0277 23.977 46.047C22.2476 43.4914 20.3851 41.0126 18.5796 38.4762C16.8692 36.0744 15.2157 33.5956 13.4103 31.2514C13.5813 31.3282 13.7524 31.3667 13.9234 31.4243ZM1.38013 33.9607C3.28062 32.827 5.23813 31.6933 7.38569 31.0977C9.40022 30.5404 11.1677 30.6941 13.0682 31.1937C14.7786 33.807 16.6601 36.3049 18.4656 38.8413C20.2521 41.3585 22.0005 43.9525 23.863 46.4313C20.195 44.7019 15.4818 45.874 12.498 48.4681C9.03913 43.4337 5.31415 38.6107 1.38013 33.9607ZM1.3041 36.0551C1.41813 35.9014 1.55117 35.7669 1.6652 35.6132C5.33316 40.0134 8.81107 44.5866 12.0609 49.3135C12.213 49.5441 12.517 49.6017 12.7261 49.4096C14.1705 48.0261 15.9569 47.0846 17.9144 46.6811C19.0547 46.4505 20.138 46.4505 21.2213 46.585C21.0883 46.6042 20.9552 46.6426 20.8222 46.6618C19.4919 46.9693 18.1615 47.392 16.8882 47.8916C15.7859 48.3335 14.7026 48.8524 13.7524 49.5633C13.3342 49.8707 12.384 50.4856 12.194 51.1005C10.3315 48.372 8.01286 45.8548 5.96032 43.28C4.91505 41.9734 3.86978 40.6667 2.8055 39.3601C2.25435 38.6876 1.49415 37.9959 1.07604 37.2273L0.79097 36.8622C0.86699 36.5163 1.01903 36.2473 1.3041 36.0551Z" fill="white"/>
<path d="M15.7588 21.8956C17.4937 20.5023 19.1419 19.0245 20.7249 17.4624C20.79 17.4201 20.855 17.3568 20.9201 17.2724C22.6333 14.6124 24.1079 11.8047 25.4958 8.97586C26.1681 7.60367 26.7753 6.18925 27.4476 4.79595C27.5343 4.60595 28.1415 3.9093 28.25 3.46597C28.3584 3.40264 28.4234 3.3182 28.4018 3.19153C28.3584 2.87487 28.2066 2.60044 27.9897 2.34711C27.7946 1.39713 26.8837 0.531592 25.9946 0.214932C25.0621 -0.122839 23.9778 -0.0595078 23.0887 0.383816C22.7851 0.426038 22.5032 0.552702 22.3297 0.784919C22.308 0.80603 22.3297 0.84825 22.3297 0.869361C21.6791 1.52379 21.3321 2.45266 20.9201 3.25487C20.2912 4.47929 19.7057 5.72482 19.1202 6.99146C17.9925 9.44029 16.8865 11.9102 15.4769 14.2113C15.3902 14.338 15.3902 14.4646 15.4335 14.5702C15.3685 14.6124 15.3034 14.6757 15.2817 14.8024C15.2601 14.8868 15.2817 14.9713 15.3034 15.0346C15.2817 15.1402 15.2601 15.2246 15.2817 15.3302C15.3034 15.4357 15.3251 15.5413 15.3685 15.6468C15.2384 16.1324 15.2384 16.7024 15.1733 17.1879C14.9781 18.6445 14.9131 20.1012 14.9131 21.5578C14.9348 21.98 15.4552 22.1489 15.7588 21.8956ZM26.1247 2.19933C26.385 2.34711 26.6235 2.5371 26.8621 2.7271C26.9922 2.83265 27.0789 2.9171 27.1874 3.02265C27.209 3.08598 27.2307 3.14931 27.2307 3.21265C27.2307 3.23376 27.2524 3.25487 27.2741 3.29709C26.6669 3.86708 26.4067 4.64817 26.0597 5.40816C25.4525 6.73813 24.8236 8.04699 24.1513 9.33474C22.9369 11.7202 21.5924 14.0213 20.2478 16.3435C19.9876 16.1324 19.7057 15.9213 19.4021 15.7313C19.4238 15.7102 19.4238 15.6891 19.4454 15.6679C20.79 13.5569 22.0044 11.3825 23.0453 9.10252C23.5007 8.08921 23.9344 7.0759 24.3248 6.04148C24.8453 4.75372 25.2139 3.33931 26.1247 2.19933ZM19.9225 7.45589C20.443 6.2737 20.9852 5.0915 21.549 3.9093C21.9393 3.08598 22.5249 2.22045 22.7417 1.31269C22.8285 1.27046 22.9152 1.24935 23.002 1.20713C23.0887 1.22824 23.1754 1.22824 23.2622 1.24935C23.9128 1.35491 24.5417 1.48157 25.1489 1.7349C25.3657 1.81934 25.5826 1.9249 25.7994 2.05156C25.1705 2.85377 24.8236 3.74041 24.4766 4.69039C23.9345 6.12592 23.3489 7.56144 22.6983 8.95475C22.1345 10.1581 21.5273 11.3403 20.8984 12.5013C20.5514 13.1136 20.2045 13.7258 19.8358 14.3169C19.6406 14.6546 19.4238 14.9713 19.2069 15.3091C19.1419 15.3935 19.0985 15.4779 19.0551 15.5413C18.2527 15.0557 17.3419 14.6335 16.4962 14.3591C17.819 12.1214 18.8816 9.79918 19.9225 7.45589ZM16.1492 14.8235C16.4745 14.9924 16.8214 15.1402 17.1684 15.3091C16.8648 15.2035 16.5612 15.1191 16.2576 15.0557C16.2142 14.9924 16.1709 14.908 16.1492 14.8235C16.1492 14.8446 16.1275 14.8446 16.1492 14.8235ZM16.1058 17.4201C16.1709 16.7657 16.4311 16.0057 16.3227 15.3513C16.9733 15.5835 17.5588 15.879 18.1226 16.1957C18.2094 16.3013 18.3395 16.3857 18.4696 16.4068C18.8599 16.639 19.2286 16.8924 19.6189 17.1879C18.9467 17.8212 18.2744 18.4334 17.6021 19.0457C17.2985 18.5179 16.648 18.2012 16.0191 18.2012C16.0624 17.9479 16.0841 17.6735 16.1058 17.4201Z" fill="white"/>
</svg>
