<svg width="60" height="64" viewBox="0 0 60 64" fill="none" xmlns="http://www.w3.org/2000/svg">
<rect y="4" width="60" height="60" rx="4" fill="#2C9E7C"/>
<rect width="60" height="60" rx="4" fill="url(#paint0_linear_152_2589)"/>
<path d="M24.8269 30.0352H16.9497C16.626 30.0352 16.3637 30.2975 16.3637 30.6211C16.3637 30.9447 16.626 31.207 16.9497 31.207H24.8269C25.1506 31.207 25.4129 30.9447 25.4129 30.6211C25.4129 30.2975 25.1506 30.0352 24.8269 30.0352Z" fill="white"/>
<path d="M24.8269 35.1455H16.9497C16.626 35.1455 16.3637 35.4079 16.3637 35.7314C16.3637 36.055 16.626 36.3174 16.9497 36.3174H24.8269C25.1506 36.3174 25.4129 36.055 25.4129 35.7314C25.4129 35.4079 25.1506 35.1455 24.8269 35.1455Z" fill="white"/>
<path d="M24.8269 40.2563H16.9497C16.626 40.2563 16.3637 40.5187 16.3637 40.8423C16.3637 41.1659 16.626 41.4282 16.9497 41.4282H24.8269C25.1506 41.4282 25.4129 41.1659 25.4129 40.8423C25.4129 40.5187 25.1506 40.2563 24.8269 40.2563Z" fill="white"/>
<path d="M31.3979 34.4158H32.6415C32.9652 34.4158 33.2275 34.1534 33.2275 33.8298C33.2275 33.5062 32.9652 33.2439 32.6415 33.2439H31.3979C31.0742 33.2439 30.812 33.5062 30.812 33.8298C30.812 34.1534 31.0743 34.4158 31.3979 34.4158Z" fill="white"/>
<path d="M36.4193 33.2439H35.1757C34.852 33.2439 34.5898 33.5062 34.5898 33.8298C34.5898 34.1534 34.852 34.4158 35.1757 34.4158H36.4193C36.743 34.4158 37.0052 34.1534 37.0052 33.8298C37.0052 33.5062 36.7429 33.2439 36.4193 33.2439Z" fill="white"/>
<path d="M40.1971 33.2439H38.9535C38.6298 33.2439 38.3675 33.5062 38.3675 33.8298C38.3675 34.1534 38.6298 34.4158 38.9535 34.4158H40.1971C40.5207 34.4158 40.783 34.1534 40.783 33.8298C40.783 33.5062 40.5207 33.2439 40.1971 33.2439Z" fill="white"/>
<path d="M43.9751 33.2439H42.7316C42.4079 33.2439 42.1456 33.5062 42.1456 33.8298C42.1456 34.1534 42.4079 34.4158 42.7316 34.4158H43.9751C44.2988 34.4158 44.561 34.1534 44.561 33.8298C44.561 33.5062 44.2987 33.2439 43.9751 33.2439Z" fill="white"/>
<path d="M31.3979 37.4626H32.6415C32.9652 37.4626 33.2275 37.2003 33.2275 36.8767C33.2275 36.5531 32.9652 36.2908 32.6415 36.2908H31.3979C31.0742 36.2908 30.812 36.5531 30.812 36.8767C30.812 37.2003 31.0743 37.4626 31.3979 37.4626Z" fill="white"/>
<path d="M36.4193 36.2908H35.1757C34.852 36.2908 34.5898 36.5531 34.5898 36.8767C34.5898 37.2003 34.852 37.4626 35.1757 37.4626H36.4193C36.743 37.4626 37.0052 37.2003 37.0052 36.8767C37.0052 36.5531 36.7429 36.2908 36.4193 36.2908Z" fill="white"/>
<path d="M40.1971 36.2908H38.9535C38.6298 36.2908 38.3675 36.5531 38.3675 36.8767C38.3675 37.2003 38.6298 37.4626 38.9535 37.4626H40.1971C40.5207 37.4626 40.783 37.2003 40.783 36.8767C40.783 36.5531 40.5207 36.2908 40.1971 36.2908Z" fill="white"/>
<path d="M43.9751 36.2908H42.7316C42.4079 36.2908 42.1456 36.5531 42.1456 36.8767C42.1456 37.2003 42.4079 37.4626 42.7316 37.4626H43.9751C44.2988 37.4626 44.561 37.2003 44.561 36.8767C44.561 36.5531 44.2987 36.2908 43.9751 36.2908Z" fill="white"/>
<path d="M31.3979 40.5095H32.6415C32.9652 40.5095 33.2275 40.2472 33.2275 39.9236C33.2275 39.6 32.9652 39.3376 32.6415 39.3376H31.3979C31.0742 39.3376 30.812 39.6 30.812 39.9236C30.812 40.2472 31.0743 40.5095 31.3979 40.5095Z" fill="white"/>
<path d="M36.4193 39.3376H35.1757C34.852 39.3376 34.5898 39.6 34.5898 39.9236C34.5898 40.2472 34.852 40.5095 35.1757 40.5095H36.4193C36.743 40.5095 37.0052 40.2472 37.0052 39.9236C37.0052 39.6 36.7429 39.3376 36.4193 39.3376Z" fill="white"/>
<path d="M40.1971 39.3376H38.9535C38.6298 39.3376 38.3675 39.6 38.3675 39.9236C38.3675 40.2472 38.6298 40.5095 38.9535 40.5095H40.1971C40.5207 40.5095 40.783 40.2472 40.783 39.9236C40.783 39.6 40.5207 39.3376 40.1971 39.3376Z" fill="white"/>
<path d="M43.9751 39.3376H42.7316C42.4079 39.3376 42.1456 39.6 42.1456 39.9236C42.1456 40.2472 42.4079 40.5095 42.7316 40.5095H43.9751C44.2988 40.5095 44.561 40.2472 44.561 39.9236C44.561 39.6 44.2987 39.3376 43.9751 39.3376Z" fill="white"/>
<path d="M18.2419 24.2002C17.9713 24.023 17.608 24.099 17.4308 24.3697C17.2536 24.6405 17.3295 25.0037 17.6004 25.1808C18.458 25.7419 19.0371 25.897 19.8057 25.9323V26.7211C19.8057 27.0447 20.068 27.307 20.3916 27.307C20.7153 27.307 20.9776 27.0447 20.9776 26.7211V25.8885C22.4649 25.6254 23.3333 24.4124 23.5237 23.2798C23.7645 21.8472 23.0146 20.6015 21.6132 20.1061C21.3845 20.0253 21.1735 19.9479 20.9776 19.8729V16.5961C21.5478 16.7077 21.8893 16.9996 21.9166 17.0236C22.1545 17.2397 22.5227 17.2238 22.7412 16.9871C22.9606 16.7492 22.9456 16.3785 22.7077 16.1591C22.6702 16.1245 22.0275 15.5464 20.9776 15.4096V14.7039C20.9776 14.3803 20.7153 14.1179 20.3916 14.1179C20.068 14.1179 19.8057 14.3803 19.8057 14.7039V15.4546C19.6904 15.4782 19.5723 15.5078 19.4517 15.5441C18.532 15.8211 17.8447 16.609 17.6578 17.6003C17.488 18.5018 17.775 19.3696 18.4071 19.8654C18.7579 20.1405 19.1973 20.3924 19.8057 20.6602V24.7602C19.2359 24.7293 18.8681 24.6098 18.2419 24.2002ZM20.9776 21.1233C21.0574 21.1522 21.1388 21.1814 21.2227 21.2111C22.5019 21.6632 22.4227 22.7601 22.3681 23.0856C22.2574 23.7442 21.7842 24.4459 20.9776 24.6844V21.1233ZM19.1302 18.9432C18.8438 18.7186 18.7209 18.2871 18.8095 17.8173C18.8921 17.3786 19.1931 16.8458 19.7897 16.666C19.7951 16.6644 19.8003 16.6632 19.8057 16.6616V19.3636C19.5297 19.2213 19.309 19.0835 19.1302 18.9432Z" fill="white"/>
<path d="M42.6929 46.5519C42.3692 46.5519 42.1069 46.8143 42.1069 47.1379V47.5569C42.1069 48.2579 41.5366 48.8282 40.8356 48.8282H14.4432C13.7421 48.8282 13.1719 48.2579 13.1719 47.5569V12.4432C13.1719 11.7422 13.7421 11.1719 14.4432 11.1719H34.9439C35.0058 11.1719 35.0668 11.1779 35.1273 11.1867V16.0862C35.1273 17.225 36.0538 18.1515 37.1926 18.1515H42.0921C42.1009 18.212 42.1069 18.2729 42.1069 18.3349V21.1321C42.1069 21.4556 42.3692 21.718 42.6929 21.718C43.0166 21.718 43.2788 21.4556 43.2788 21.1321V18.3349C43.2788 17.6651 42.9581 17.0004 42.5756 16.6202C42.3351 16.3797 36.6779 10.7219 36.6715 10.7156L36.6582 10.7024C36.6577 10.702 36.6572 10.7014 36.6566 10.7009L36.6563 10.7006C36.6547 10.6991 36.6532 10.6976 36.6515 10.6959C36.2111 10.2658 35.6039 10 34.9439 10H14.4432C13.096 10 12 11.096 12 12.4432V47.5568C12 48.904 13.096 50 14.4432 50H40.8355C42.1827 50 43.2787 48.904 43.2787 47.5568V47.1378C43.2788 46.8143 43.0165 46.5519 42.6929 46.5519ZM36.2992 12.0006C36.7357 12.4371 40.6888 16.3901 41.2783 16.9796H37.1926C36.6999 16.9796 36.2991 16.5788 36.2991 16.0862V12.0006H36.2992Z" fill="white"/>
<path d="M45.5751 23.2952H29.798C28.6765 23.2952 27.7639 24.2077 27.7639 25.3293V27.3005C27.7639 27.6241 28.0262 27.8864 28.3498 27.8864C28.6735 27.8864 28.9358 27.6241 28.9358 27.3005V25.3293C28.9358 24.8539 29.3226 24.467 29.798 24.467H45.5751C46.0505 24.467 46.4373 24.8538 46.4373 25.3293V42.9538C46.4373 43.4292 46.0505 43.8161 45.5751 43.8161H29.798C29.3226 43.8161 28.9358 43.4293 28.9358 42.9538V30.0398C28.9358 29.7162 28.6735 29.4539 28.3498 29.4539C28.0262 29.4539 27.7639 29.7162 27.7639 30.0398V42.9538C27.7639 44.0754 28.6765 44.9879 29.798 44.9879H45.5751C46.6967 44.9879 47.6092 44.0754 47.6092 42.9538V25.3292C47.6092 24.2077 46.6967 23.2952 45.5751 23.2952Z" fill="white"/>
<path d="M44.5608 27.1718C44.5608 26.6003 44.0958 26.1353 43.5243 26.1353H31.8486C31.2771 26.1353 30.812 26.6003 30.812 27.1718V30.1706C30.812 30.7421 31.277 31.2071 31.8486 31.2071H43.5243C44.0958 31.2071 44.5608 30.7421 44.5608 30.1706V27.1718ZM43.389 30.0353H31.9839V27.3071H43.3889V30.0353H43.389Z" fill="white"/>
<defs>
<linearGradient id="paint0_linear_152_2589" x1="30" y1="0" x2="30" y2="60" gradientUnits="userSpaceOnUse">
<stop stop-color="#75E0C0"/>
<stop offset="1" stop-color="#3ABD96"/>
</linearGradient>
</defs>
</svg>
