<svg width="49" height="74" viewBox="0 0 49 74" fill="none" xmlns="http://www.w3.org/2000/svg">
<path d="M8.12544 62.1341C10.8284 65.5163 13.344 69.1961 16.2878 72.3619C16.2878 72.389 16.3146 72.416 16.3414 72.4431C16.9569 73.1195 17.9471 74.2289 18.9373 73.9583C19.5528 73.796 20.1148 73.1195 20.5965 72.7407C21.3994 72.1454 22.229 71.5502 23.0854 70.982C25.3066 69.5208 27.6884 68.3032 30.2308 67.6809C30.3111 67.6809 30.3646 67.6809 30.4449 67.6809C31.5154 67.735 32.5323 68.1138 33.5761 68.195C34.3789 68.2491 34.9142 67.8974 34.9944 67.0856C36.6269 64.894 38.0453 62.6482 40.0257 60.7271C41.1229 59.6718 42.3005 58.7248 43.5315 57.886C43.5583 57.886 43.5583 57.8589 43.585 57.8589C45.164 56.8849 46.85 56.1002 48.5895 55.5049C48.9374 55.3696 49.1783 54.8555 48.8304 54.585C48.2684 54.125 47.7331 53.6109 47.1444 53.2321C47.1979 53.205 47.2247 53.205 47.2782 53.178C47.412 53.1238 47.4655 53.0156 47.4655 52.9074C47.519 52.8533 47.5458 52.7991 47.5458 52.718C47.7867 52.6639 47.974 52.3933 47.8134 52.0956C47.7064 51.9333 47.5993 51.7439 47.4923 51.5815H47.519C47.6796 51.5815 47.7064 51.3651 47.5993 51.2839C47.4923 51.2027 47.3585 51.1757 47.2246 51.1486C46.9838 50.7698 46.7429 50.3639 46.5288 49.9851C46.288 49.3358 45.8866 48.7405 45.5119 48.1452C44.7893 46.9817 44.0132 45.8724 43.2371 44.763C41.6314 42.4901 40.0524 40.2443 38.4467 37.9715C37.0283 35.9692 35.7438 33.5881 34.031 31.8294C33.2014 30.9635 31.783 30.6118 31.0069 31.5859C29.0533 32.1 27.2602 32.9117 25.7348 34.3187C25.146 34.8598 24.477 35.5092 23.8079 36.2127C21.8276 38.1338 20.1148 40.5149 19.2852 43.1125C16.8231 41.7055 13.5046 41.8408 10.8552 42.436C7.18877 43.2748 3.92382 45.223 0.739143 47.1441C0.391238 47.3605 0.364476 47.7935 0.605334 48.0911C1.11381 48.6864 1.59553 49.2546 2.07724 49.8498C1.27438 50.2016 0.739142 50.7428 0.123618 51.4463C0.0165698 51.5815 -0.0637153 51.798 0.0700945 51.9604C2.69277 55.3967 5.44924 58.7519 8.12544 62.1341ZM25.0658 68.4115C23.5938 69.1961 22.2022 70.0891 20.8909 71.0902C20.3556 71.469 19.6331 72.2537 19.0443 72.5242C18.6429 72.6866 18.295 72.6595 17.9471 72.5513C17.9471 72.5513 17.9471 72.5513 17.9738 72.5242C18.1076 72.3619 18.1076 72.1725 17.9738 72.0102C17.9738 72.0102 17.9738 72.0101 17.9471 71.9831C18.1879 71.929 18.402 71.7666 18.5358 71.5231C18.7767 71.2796 18.9908 71.0631 19.2584 70.8467C19.8472 70.3326 20.4895 69.8996 21.1585 69.4938C22.336 68.7903 23.6206 68.2491 24.9052 67.7891C27.2067 66.9503 29.8561 65.841 32.3718 66.0845C32.4253 66.0845 32.4521 66.1116 32.5056 66.1116C29.8829 66.328 27.4208 67.1939 25.0658 68.4115ZM31.8098 67.3833C32.4521 67.3021 33.1211 67.248 33.7902 67.248C33.8437 67.3292 33.9775 67.3833 34.0578 67.3833C33.5225 67.6268 32.5859 67.5186 31.8098 67.3833ZM34.8071 66.8151C34.7536 66.788 34.7001 66.788 34.6198 66.8151C34.7803 66.6257 34.9142 66.4362 35.0747 66.2468C34.9944 66.4362 34.9142 66.6257 34.8071 66.8151ZM47.3317 54.7744C44.5752 55.8567 42.0328 57.3719 39.7581 59.293C38.5805 60.2941 37.3495 61.4576 36.279 62.7293C36.3861 62.5399 36.4931 62.3505 36.6002 62.1882C37.4565 60.8082 38.42 59.5095 39.4904 58.3189C41.3905 56.2084 43.5583 54.612 46.1007 53.5838C46.4486 54.0438 46.8768 54.4226 47.3317 54.7744ZM46.6359 52.745C46.5288 52.7721 46.4218 52.7991 46.3415 52.8262C46.2345 52.8262 46.1542 52.8533 46.1007 52.9074C43.4512 53.8003 41.1497 55.6673 39.2764 57.6966C37.5368 59.5636 35.3691 62.1882 34.5395 64.7857C34.486 64.7046 34.4324 64.6234 34.3789 64.5422C34.7268 63.2164 35.7705 61.7282 36.3325 60.8353C37.2157 59.4554 38.2059 58.1566 39.3566 56.966C40.4271 55.8567 41.6046 54.8285 42.8625 53.9356C43.6921 53.3674 44.9499 52.3662 46.1274 51.8792C46.3148 52.1768 46.4753 52.4474 46.6359 52.745ZM24.8517 36.6186C25.2799 36.1586 25.708 35.6716 26.163 35.2116C27.3673 34.2916 28.6786 33.507 30.097 32.9117C30.6322 32.6682 31.2478 32.4247 31.8901 32.2082C32.1041 32.1541 32.3182 32.127 32.5323 32.0729C32.5056 32.0458 32.5056 32.0188 32.4788 32.0188C33.9507 32.6411 35.4226 35.5363 36.0649 36.4563C37.296 38.188 38.5003 39.9467 39.7313 41.6784C40.8553 43.3019 42.0061 44.8983 43.1301 46.5217C43.1568 46.5488 43.1568 46.5759 43.1836 46.6029C44.04 48.2534 44.9499 49.8769 45.8866 51.4733C45.0302 51.8792 44.147 52.5556 43.6653 52.8803C41.9258 53.9897 40.2933 55.3426 38.9017 56.8849C37.5368 58.346 36.3593 59.9965 35.3959 61.7553C35.0212 62.4588 34.4592 63.3517 34.1916 64.2446C33.5761 63.2434 32.9338 62.2694 32.3182 61.2953C30.9266 59.1307 29.5082 57.0202 28.0631 54.9096C26.6715 52.8803 25.2531 50.878 23.8079 48.9028C22.6572 47.3335 21.5064 45.4394 20.1148 43.9783C21.0247 41.0831 22.8713 38.8373 24.8517 36.6186ZM19.6063 44.2489C20.5697 45.8994 21.9881 47.4417 23.0854 48.9569C24.4235 50.7698 25.708 52.6097 26.9926 54.4767C28.2772 56.3437 29.535 58.2107 30.766 60.0777C31.328 60.9435 31.8901 61.8094 32.4253 62.6482C32.7464 63.1623 33.0943 63.6764 33.4155 64.2175C33.5225 64.3799 33.6296 64.5693 33.7366 64.7316C33.7366 64.7857 33.7634 64.8128 33.7634 64.8398C31.3281 61.2412 28.7054 57.7507 26.163 54.1791C23.7544 50.7969 21.4261 47.3064 18.8837 44.0054C19.1246 44.1136 19.3655 44.1677 19.6063 44.2489ZM1.94343 47.8205C4.61963 46.2241 7.3761 44.6277 10.4002 43.7889C13.237 43.0042 15.7258 43.2207 18.402 43.9242C20.8106 47.6041 23.46 51.1216 26.0024 54.6932C28.518 58.2378 30.9801 61.8906 33.6028 65.381C28.4378 62.9458 21.8008 64.5963 17.5992 68.2491C12.7285 61.16 7.48316 54.3685 1.94343 47.8205ZM1.83638 50.7698C1.99695 50.5533 2.18429 50.3639 2.34486 50.1475C7.50992 56.3437 12.4074 62.7835 16.9836 69.4397C17.1977 69.7644 17.6259 69.8455 17.9203 69.575C19.9542 67.6268 22.4698 66.301 25.2263 65.7327C26.832 65.4081 28.3575 65.4081 29.8829 65.5975C29.6956 65.6245 29.5082 65.6786 29.3209 65.7057C27.4476 66.1386 25.5742 66.7339 23.7812 67.4374C22.229 68.0597 20.7036 68.7903 19.3655 69.7914C18.7767 70.2243 17.4386 71.0902 17.171 71.956C14.5483 68.1138 11.2833 64.5693 8.39306 60.9435C6.92115 59.1036 5.44925 57.2637 3.95058 55.4237C3.17448 54.4767 2.104 53.5026 1.51524 52.4203L1.11381 51.9062C1.22086 51.4192 1.43495 51.0404 1.83638 50.7698Z" fill="#7763E5"/>
<path d="M22.1909 30.8324C24.6339 28.8704 26.9548 26.7895 29.184 24.5897C29.2756 24.5302 29.3672 24.4411 29.4588 24.3222C31.8712 20.5765 33.9478 16.6228 35.9022 12.6394C36.8488 10.7071 37.7039 8.71543 38.6505 6.75344C38.7727 6.4859 39.6277 5.5049 39.7804 4.88063C39.9331 4.79145 40.0247 4.67254 39.9942 4.49418C39.9331 4.04827 39.7193 3.66182 39.414 3.30509C39.1391 1.96737 37.8566 0.748564 36.6045 0.302657C35.2914 -0.172976 33.7646 -0.0837962 32.5125 0.540473C32.085 0.599927 31.688 0.77829 31.4437 1.10529C31.4132 1.13502 31.4437 1.19447 31.4437 1.2242C30.5276 2.14574 30.039 3.45373 29.4588 4.58336C28.5732 6.30753 27.7487 8.06143 26.9242 9.84506C25.3363 13.2934 23.7789 16.7715 21.794 20.0117C21.6718 20.1901 21.6718 20.3685 21.7329 20.5171C21.6413 20.5765 21.5497 20.6657 21.5191 20.8441C21.4886 20.963 21.5191 21.0819 21.5497 21.1711C21.5191 21.3197 21.4886 21.4386 21.5191 21.5873C21.5497 21.7359 21.5802 21.8845 21.6413 22.0332C21.4581 22.7169 21.458 23.5195 21.3664 24.2033C21.0916 26.2544 21 28.3056 21 30.3568C21.0305 30.9513 21.7634 31.1891 22.1909 30.8324ZM36.7877 3.097C37.1542 3.30509 37.4901 3.57264 37.826 3.84018C38.0092 3.98882 38.1314 4.10773 38.2841 4.25636C38.3146 4.34555 38.3451 4.43472 38.3451 4.52391C38.3451 4.55363 38.3757 4.58336 38.4062 4.64281C37.5512 5.44544 37.1847 6.54535 36.6961 7.61552C35.8411 9.48833 34.9555 11.3314 34.0089 13.1448C32.2988 16.5039 30.4055 19.7442 28.5122 23.0142C28.1457 22.7169 27.7487 22.4196 27.3212 22.1521C27.3517 22.1224 27.3517 22.0926 27.3823 22.0629C29.2756 19.0902 30.9857 16.0283 32.4515 12.8178C33.0927 11.3909 33.7035 9.96396 34.2532 8.50734C34.986 6.69398 35.5052 4.70227 36.7877 3.097ZM28.0541 10.4991C28.787 8.83434 29.5504 7.16962 30.3444 5.5049C30.8941 4.34554 31.7186 3.12673 32.0239 1.84847C32.1461 1.78901 32.2682 1.75928 32.3904 1.69983C32.5125 1.72956 32.6347 1.72956 32.7568 1.75928C33.673 1.90792 34.5585 2.08628 35.4136 2.44301C35.7189 2.56192 36.0243 2.71055 36.3297 2.88892C35.4441 4.01855 34.9555 5.26708 34.4669 6.6048C33.7035 8.62625 32.879 10.6477 31.9629 12.6097C31.1689 14.3041 30.3139 15.9688 29.4283 17.6038C28.9397 18.4659 28.4511 19.328 27.9319 20.1604C27.6571 20.636 27.3517 21.0819 27.0464 21.5575C26.9548 21.6764 26.8937 21.7954 26.8326 21.8845C25.7027 21.2008 24.4202 20.6063 23.2292 20.2198C25.092 17.0687 26.5883 13.7988 28.0541 10.4991ZM22.7406 20.8738C23.1987 21.1116 23.6873 21.3197 24.1759 21.5575C23.7483 21.4089 23.3208 21.29 22.8933 21.2008C22.8322 21.1116 22.7711 20.9927 22.7406 20.8738C22.7406 20.9035 22.7101 20.9035 22.7406 20.8738ZM22.6795 24.5303C22.7712 23.6087 23.1376 22.5385 22.9849 21.617C23.901 21.944 24.7255 22.3602 25.5195 22.8061C25.6417 22.9547 25.8249 23.0736 26.0081 23.1033C26.5578 23.4303 27.0769 23.7871 27.6266 24.2033C26.6799 25.0951 25.7333 25.9571 24.7866 26.8192C24.3591 26.0761 23.443 25.6302 22.5574 25.6302C22.6185 25.2734 22.649 24.887 22.6795 24.5303Z" fill="#7763E5"/>
</svg>
