<svg width="39" height="36" viewBox="0 0 39 36" fill="none" xmlns="http://www.w3.org/2000/svg">
<path d="M37.5 0H1.5C0.67275 0 0 0.67275 0 1.5V30C0 30.8272 0.67275 31.5 1.5 31.5H22.5V35.25C22.5 35.547 22.6748 35.8155 22.9463 35.9362C23.0445 35.979 23.1472 36 23.25 36C23.433 36 23.6138 35.9333 23.7547 35.805L25.5 34.2188L27.2453 35.805C27.3862 35.9333 27.567 36 27.75 36C27.8528 36 27.9555 35.979 28.0537 35.9362C28.3252 35.8155 28.5 35.547 28.5 35.25V31.5H37.5C38.3273 31.5 39 30.8272 39 30V1.5C39 0.67275 38.3273 0 37.5 0ZM8.1825 27C7.86525 25.1198 6.381 23.6355 4.5 23.3175V8.1825C6.38025 7.86525 7.8645 6.381 8.1825 4.5H30.8175C31.1348 6.38025 32.619 7.8645 34.5 8.1825V23.3175C32.6198 23.6348 31.1355 25.119 30.8175 27H29.391C29.7757 26.337 30 25.5697 30 24.75C30 22.2682 27.9818 20.25 25.5 20.25C23.0182 20.25 21 22.2682 21 24.75C21 25.5697 21.2243 26.337 21.609 27H8.1825ZM22.5 24.75C22.5 23.0955 23.8455 21.75 25.5 21.75C27.1545 21.75 28.5 23.0955 28.5 24.75C28.5 26.4045 27.1545 27.75 25.5 27.75C23.8455 27.75 22.5 26.4045 22.5 24.75ZM26.0047 32.6497C25.9755 32.6235 25.9395 32.613 25.9072 32.5913C25.8652 32.5635 25.8255 32.5335 25.7798 32.5148C25.7348 32.4967 25.6882 32.49 25.641 32.481C25.5938 32.472 25.548 32.4607 25.5 32.4607C25.4527 32.4607 25.4085 32.472 25.362 32.4802C25.314 32.4893 25.2667 32.496 25.2202 32.5148C25.1745 32.5327 25.1362 32.5627 25.095 32.5897C25.0627 32.6115 25.0252 32.622 24.996 32.649L24 33.555V28.9875C24.4695 29.1548 24.9735 29.25 25.5 29.25C26.0265 29.25 26.5305 29.1548 27 28.9875V33.555L26.0047 32.6497ZM37.5 30H28.5V28.5H31.5C31.914 28.5 32.25 28.164 32.25 27.75C32.25 26.0955 33.5955 24.75 35.25 24.75C35.664 24.75 36 24.414 36 24V7.5C36 7.086 35.664 6.75 35.25 6.75C33.5955 6.75 32.25 5.4045 32.25 3.75C32.25 3.336 31.914 3 31.5 3H7.5C7.086 3 6.75 3.336 6.75 3.75C6.75 5.4045 5.4045 6.75 3.75 6.75C3.336 6.75 3 7.086 3 7.5V24C3 24.414 3.336 24.75 3.75 24.75C5.4045 24.75 6.75 26.0955 6.75 27.75C6.75 28.164 7.086 28.5 7.5 28.5H22.5V30H1.5V1.5H37.5V30ZM27.75 8.25H11.25C10.836 8.25 10.5 7.914 10.5 7.5C10.5 7.086 10.836 6.75 11.25 6.75H27.75C28.164 6.75 28.5 7.086 28.5 7.5C28.5 7.914 28.164 8.25 27.75 8.25ZM24.75 12H14.25C13.836 12 13.5 11.664 13.5 11.25C13.5 10.836 13.836 10.5 14.25 10.5H24.75C25.164 10.5 25.5 10.836 25.5 11.25C25.5 11.664 25.164 12 24.75 12ZM24.75 18.75H14.25C13.836 18.75 13.5 18.414 13.5 18C13.5 17.586 13.836 17.25 14.25 17.25H24.75C25.164 17.25 25.5 17.586 25.5 18C25.5 18.414 25.164 18.75 24.75 18.75ZM22.5 13.5C22.914 13.5 23.25 13.836 23.25 14.25C23.25 14.664 22.914 15 22.5 15H16.5C16.086 15 15.75 14.664 15.75 14.25C15.75 13.836 16.086 13.5 16.5 13.5H22.5ZM27.75 24.75C27.75 23.5095 26.7405 22.5 25.5 22.5C24.2595 22.5 23.25 23.5095 23.25 24.75C23.25 25.9905 24.2595 27 25.5 27C26.7405 27 27.75 25.9905 27.75 24.75ZM24.75 24.75C24.75 24.3368 25.0868 24 25.5 24C25.9132 24 26.25 24.3368 26.25 24.75C26.25 25.1632 25.9132 25.5 25.5 25.5C25.0868 25.5 24.75 25.1632 24.75 24.75Z" fill="white"/>
</svg>
