<svg width="56" height="40" viewBox="0 0 56 40" fill="none" xmlns="http://www.w3.org/2000/svg">
<path d="M51.2984 21.5891L45.9509 23.5423C45.76 20.8208 45.4341 18.1584 44.9802 15.6087L54.6635 12.3951C55.4754 12.1257 56 11.3972 56 10.5392C56 9.68117 55.4754 8.95258 54.6635 8.68322L28.9656 0.155093C28.3428 -0.0516976 27.6568 -0.0516976 27.0343 0.155093L1.33646 8.68322C0.524564 8.95269 0 9.68117 0 10.5393C0 11.3974 0.524564 12.1259 1.33646 12.3952L11.0181 15.6083C10.7739 16.9817 10.5637 18.4107 10.3925 19.8646C10.3395 20.3162 10.661 20.7254 11.1109 20.7787C11.1436 20.7825 11.1761 20.7844 11.2082 20.7844C11.6183 20.7844 11.9725 20.4764 12.0218 20.0577C12.1795 18.7179 12.3712 17.4007 12.5924 16.1307L15.2009 16.9964V19.044C13.8885 19.4059 12.9213 20.6131 12.9213 22.0434C12.9213 22.9058 13.2729 23.687 13.8396 24.251C13.4242 25.7753 13.1037 27.5616 12.8795 29.5974C12.3199 29.2763 11.9029 28.9996 11.6241 28.8015C11.5418 28.7431 11.4933 28.6466 11.494 28.5433C11.5059 26.9175 11.5704 25.2663 11.6856 23.6353C11.7177 23.1818 11.3773 22.7881 10.9254 22.7559C10.4745 22.7243 10.0811 23.0654 10.0491 23.5189C9.93149 25.1844 9.86564 26.8708 9.85339 28.531C9.84858 29.1723 10.1563 29.7756 10.676 30.1451C11.087 30.4372 11.7646 30.8809 12.7122 31.3832C12.5731 33.1657 12.4989 35.1134 12.4901 37.2199C12.4875 37.8481 12.9094 38.3966 13.5166 38.5537C14.054 38.6927 14.9248 38.8584 16.0212 38.8584C17.1174 38.8584 17.9883 38.6926 18.5258 38.5536C19.1328 38.3965 19.5548 37.848 19.5521 37.2199C19.5474 36.0712 19.5228 34.9706 19.4792 33.9174C20.5881 34.1976 21.7401 34.4342 22.9206 34.6236C22.9517 35.2704 23.0913 35.9534 23.3339 36.6223C23.719 37.6839 24.3253 38.606 25.0415 39.2188C25.6412 39.732 26.2959 40 26.9154 40C27.1308 40 27.3416 39.9658 27.5447 39.8999C27.5682 39.8936 27.5916 39.8863 27.6149 39.8777L40.2939 35.2467C40.294 35.2467 40.294 35.2467 40.2942 35.2466L40.2966 35.2457C40.7945 35.0644 41.227 35.0658 41.6187 35.25C42.5125 35.6702 43.0468 36.9366 43.2351 37.4618C43.359 37.8066 43.6093 38.0821 43.9403 38.2377C44.1247 38.3244 44.3216 38.368 44.5193 38.368C44.6772 38.368 44.8355 38.3402 44.9883 38.2843L48.753 36.9092C49.1247 36.7735 49.4198 36.4831 49.5624 36.1126C49.704 35.7448 49.6807 35.3343 49.4985 34.9863C48.9707 33.9788 48.1461 33.2266 47.0811 32.7674L48.3915 32.2887C48.8172 32.1332 49.0367 31.6608 48.8818 31.2336C48.7269 30.8063 48.2561 30.5859 47.8303 30.7415L45.5856 31.5614C45.704 30.6904 45.5914 29.6677 45.215 28.6298C44.8519 27.629 44.292 26.7526 43.6291 26.142L51.8591 23.1359C52.3473 22.9572 53.4379 23.7542 54.0375 25.4073C54.3228 26.1942 54.4245 27.0159 54.3163 27.6616C54.2368 28.1358 54.0527 28.4688 53.8237 28.5524L51.2565 29.49C50.8308 29.6456 50.6113 30.118 50.7663 30.5452C50.9211 30.9722 51.3913 31.1926 51.8177 31.0372L54.3849 30.0996C55.188 29.8062 55.7527 29.0173 55.9342 27.9348C56.0903 27.0034 55.9642 25.9058 55.5792 24.8442C54.7141 22.4584 52.8338 21.0284 51.2984 21.5891ZM16.0212 20.5789C16.8257 20.5789 17.4803 21.2359 17.4803 22.0433C17.4803 22.8508 16.8258 23.5077 16.0212 23.5077C15.2165 23.5077 14.5619 22.8508 14.5619 22.0433C14.5619 21.2359 15.2165 20.5789 16.0212 20.5789ZM16.0212 37.2121C15.2045 37.2121 14.5399 37.1005 14.1319 37.009C14.1702 31.037 14.7617 27.2927 15.3211 25.0731C15.5463 25.1255 15.7804 25.1541 16.0212 25.1541C16.262 25.1541 16.4961 25.1255 16.7213 25.0731C17.2799 27.29 17.8719 31.0348 17.9104 37.009C17.5022 37.1007 16.8377 37.2121 16.0212 37.2121ZM18.2026 24.251C18.7692 23.687 19.1209 22.9057 19.1209 22.0434C19.1209 20.6131 18.1537 19.4059 16.8414 19.044V17.541L27.0341 20.9236C27.3456 21.027 27.6726 21.0787 27.9998 21.0787C28.3269 21.0787 28.6541 21.027 28.9654 20.9236L35.6104 18.7184C36.0406 18.5757 36.2738 18.1101 36.1318 17.6783C35.9895 17.2467 35.5256 17.0121 35.0953 17.1551L28.4502 19.3604C28.1597 19.4568 27.8397 19.4568 27.5492 19.3604L17.8828 16.1523L25.4991 11.0945C25.5331 11.112 25.5667 11.1298 25.602 11.1464C26.2111 11.4322 27.0144 11.5772 27.9892 11.5772C28.9641 11.5772 29.7672 11.4323 30.3764 11.1464C31.2263 10.7476 31.6942 10.0662 31.6942 9.22764C31.6942 7.65629 30.0668 6.42543 27.9892 6.42543C25.9116 6.42543 24.2843 7.65629 24.2843 9.22764C24.2843 9.45089 24.3185 9.66273 24.3832 9.86129L15.9005 15.4945L1.8515 10.8321C1.66808 10.7712 1.64063 10.6225 1.64063 10.5393C1.64063 10.4561 1.66808 10.3074 1.8515 10.2464L27.5494 1.7182C27.8399 1.62172 28.16 1.62172 28.4505 1.7182L54.1484 10.2464C54.3318 10.3074 54.3593 10.4561 54.3593 10.5393C54.3593 10.6225 54.3318 10.7712 54.1484 10.8321L38.5514 16.0081C38.1212 16.1508 37.8879 16.6166 38.03 17.0482C38.1723 17.4798 38.6364 17.7143 39.0664 17.5714L43.4077 16.1306C43.8505 18.6756 44.1729 21.4196 44.3473 24.1282C44.3473 24.1282 37.2081 26.7358 37.2075 26.736C37.2073 26.7361 37.2072 26.7362 37.2069 26.7362L24.5283 31.367C24.5271 31.3675 24.526 31.368 24.5248 31.3685C23.8652 31.6108 23.3675 32.1881 23.1108 32.9871C21.8259 32.7788 20.578 32.5123 19.3876 32.193C19.1823 29.0515 18.7863 26.3926 18.2026 24.251ZM25.9249 9.22764C25.9249 8.68201 26.8076 8.07185 27.9892 8.07185C29.1708 8.07185 30.0536 8.68212 30.0536 9.22764C30.0536 9.7107 28.9834 9.93077 27.9892 9.93077C26.995 9.93077 25.9249 9.7107 25.9249 9.22764ZM38.7165 28.6477C39.2131 29.0726 39.6615 29.7676 39.9469 30.5545C40.2323 31.3414 40.334 32.163 40.2257 32.8088C40.1462 33.2828 39.9621 33.6158 39.7332 33.6995L29.1882 37.5511C29.305 36.6558 29.1724 35.6232 28.8094 34.6225C28.4464 33.6218 27.8866 32.7452 27.2238 32.1346L37.7688 28.283C37.9972 28.1994 38.3519 28.3358 38.7165 28.6477ZM24.8756 36.0593C24.5903 35.2725 24.4886 34.4508 24.5968 33.8051C24.6763 33.331 24.8603 32.9982 25.0891 32.9144C25.0893 32.9144 25.0894 32.9144 25.0894 32.9142L25.0899 32.914C25.1342 32.898 25.1831 32.89 25.2358 32.89C25.4561 32.89 25.7434 33.0273 26.0372 33.2788C26.5338 33.7036 26.9822 34.3987 27.2676 35.1855C27.5529 35.9724 27.6546 36.7941 27.5464 37.4398C27.4669 37.914 27.2828 38.247 27.0537 38.3306C26.8251 38.4143 26.4706 38.278 26.1059 37.966C25.6094 37.5412 25.161 36.8462 24.8756 36.0593ZM47.8833 35.4751L44.681 36.6448C44.3956 35.9252 43.8807 34.9242 43.0561 34.238L43.9311 33.9183C44.3776 33.8739 46.737 33.7301 47.8833 35.4751ZM42.4432 27.2866C42.9397 27.7114 43.3883 28.4065 43.6736 29.1933C44.2729 30.8459 43.9477 32.1593 43.4604 32.3382L41.8673 32.9201C41.9841 32.0247 41.8516 30.9921 41.4885 29.9914C41.1256 28.9907 40.566 28.114 39.9031 27.5034L41.4953 26.9218C41.7246 26.8384 42.0786 26.9746 42.4432 27.2866Z" fill="white"/>
</svg>
