<svg width="65" height="52" viewBox="0 0 65 52" fill="none" xmlns="http://www.w3.org/2000/svg">
<path d="M32.5086 33.7958L27.7269 41.6752L18.5123 41.8766L13.5353 50.0912C13.2984 50.4505 13.456 50.9159 13.7912 51.1118C14.1506 51.3494 14.6153 51.1924 14.8106 50.8571L19.3555 43.3371L28.5701 43.1356L33.3518 35.2563L42.5664 35.0548L47.3482 27.1755L56.5628 26.974L61.5398 18.7594C61.7767 18.4001 61.6191 17.9347 61.2838 17.7388C60.9486 17.5429 60.4597 17.6582 60.2645 17.9935L55.7196 25.5135L46.505 25.715L41.7232 33.5943L32.5086 33.7958Z" fill="#F7941D"/>
<path d="M29.184 28.038L24.4023 35.9173L15.1877 36.1188L10.2107 44.3334C9.97379 44.6927 10.1314 45.1581 10.4667 45.354C10.826 45.5916 11.2908 45.4346 11.486 45.0993L16.0309 37.5793L25.2455 37.3778L30.0272 29.4985L39.2419 29.297L44.0236 21.4177L53.2382 21.2162L58.2152 13.0016C58.4521 12.6423 58.2945 12.1769 57.9592 11.981C57.5999 11.7434 57.1351 11.9004 56.9399 12.2357L52.395 19.7557L43.1804 19.9572L38.3987 27.8365L29.184 28.038Z" fill="#F7941D"/>
<path d="M25.8593 22.2802L21.0776 30.1595L11.863 30.361L6.88597 38.5756C6.64909 38.9349 6.80669 39.4003 7.14196 39.5962C7.50131 39.8338 7.96605 39.6768 8.16127 39.3415L12.7062 31.8215L21.9208 31.62L26.7025 23.7407L35.9171 23.5392L40.6989 15.6598L49.9135 15.4584L54.8905 7.24377C55.1274 6.88446 54.9698 6.41908 54.6345 6.22319C54.2752 5.98557 53.8104 6.14261 53.6152 6.47787L49.0703 13.9979L39.8557 14.1994L35.0739 22.0787L25.8593 22.2802Z" fill="#F7941D"/>
<path d="M22.5349 16.5213L17.7531 24.4006L8.53851 24.6021L3.56152 32.8167C3.32463 33.176 3.48224 33.6414 3.8175 33.8373C4.17686 34.0749 4.6416 33.9178 4.83683 33.5826L9.38172 26.0625L18.5963 25.8611L23.4022 18.0235L32.6168 17.822L37.3986 9.94265L46.6132 9.74119L51.5902 1.52658C51.7613 1.14959 51.6694 0.701893 51.3101 0.464271C50.9748 0.268378 50.486 0.383695 50.2908 0.718956L45.7459 8.239L36.5313 8.44045L31.7495 16.3198L22.5349 16.5213Z" fill="#F7941D"/>
</svg>
