<svg width="60" height="64" viewBox="0 0 60 64" fill="none" xmlns="http://www.w3.org/2000/svg">
<rect y="4" width="60" height="60" rx="4" fill="#1C959C"/>
<rect width="60" height="60" rx="4" fill="url(#paint0_linear_123_2633)"/>
<path d="M14.9999 25.9382C13.8798 25.9382 12.9688 26.8494 12.9688 27.9694C12.9688 29.0894 13.8799 30.0006 14.9999 30.0006C16.12 30.0006 17.0311 29.0894 17.0311 27.9694C17.0311 26.8494 16.1199 25.9382 14.9999 25.9382ZM14.9999 28.4382C14.7414 28.4382 14.5312 28.2279 14.5312 27.9694C14.5312 27.7109 14.7414 27.5007 14.9999 27.5007C15.2584 27.5007 15.4687 27.7109 15.4687 27.9694C15.4687 28.2279 15.2583 28.4382 14.9999 28.4382Z" fill="white"/>
<path d="M47.3431 23.4381H39.1556L37.1917 17.0371C37.091 16.7091 36.788 16.4851 36.4448 16.4851H23.5545C23.2113 16.4851 22.9083 16.7091 22.8075 17.0371L20.8436 23.4381H18.8995V21.7194C18.8995 21.288 18.5497 20.9382 18.1183 20.9382H13.7434C13.312 20.9382 12.9622 21.288 12.9622 21.7194V23.4381H12.6562C11.1915 23.4381 10 24.6296 10 26.0943V47.3438C10 48.8084 11.1916 50 12.6562 50H47.3429C48.8076 50 49.9991 48.8084 49.9991 47.3438V26.0943C49.9992 24.6296 48.8077 23.4381 47.3431 23.4381ZM24.132 18.0476H35.8674L37.5213 23.4381H22.4781L24.132 18.0476ZM14.5248 22.5006H17.3373V23.4381H14.5248V22.5006ZM48.4367 47.3438C48.4367 47.9469 47.9461 48.4375 47.343 48.4375H46.8547V42.9754C46.8547 42.544 46.5049 42.1942 46.0735 42.1942C45.642 42.1942 45.2922 42.544 45.2922 42.9754V48.4375H12.6563C12.0532 48.4375 11.5626 47.9468 11.5626 47.3437V26.0943C11.5626 25.4911 12.0532 25.0005 12.6563 25.0005H47.3431C47.9462 25.0005 48.4368 25.4911 48.4368 26.0943V47.3438H48.4367Z" fill="white"/>
<path d="M20.003 35.8792C20.0019 35.8792 20.0009 35.8792 19.9998 35.8792C19.5698 35.8792 19.2203 36.2269 19.2187 36.6574L19.2185 36.719C19.2185 37.1504 19.5684 37.5002 19.9998 37.5002C20.4312 37.5002 20.781 37.1504 20.781 36.719L20.7812 36.6634C20.7828 36.232 20.4344 35.8808 20.003 35.8792Z" fill="white"/>
<path d="M29.9995 25.9382C27.7523 25.9382 25.5987 26.623 23.7713 27.9182C21.9848 29.1847 20.6407 30.9355 19.8844 32.9813C19.7347 33.386 19.9415 33.8353 20.3463 33.985C20.7508 34.1345 21.2003 33.9278 21.35 33.523C22.6815 29.921 26.1576 27.5007 29.9995 27.5007C35.0826 27.5007 39.218 31.6362 39.218 36.7193C39.218 41.8023 35.0826 45.9378 29.9995 45.9378C26.0441 45.9378 22.5345 43.4227 21.2662 39.6793C21.1279 39.2707 20.6844 39.0517 20.2756 39.19C19.867 39.3284 19.648 39.772 19.7864 40.1807C21.2697 44.5588 25.374 47.5003 29.9994 47.5003C35.9441 47.5003 40.7805 42.6639 40.7805 36.7193C40.7805 30.7746 35.9442 25.9382 29.9995 25.9382Z" fill="white"/>
<path d="M29.9996 29.7271C26.1441 29.7271 23.0076 32.8636 23.0076 36.7191C23.0076 40.5746 26.1441 43.7111 29.9996 43.7111C33.8551 43.7111 36.9916 40.5746 36.9916 36.7191C36.9916 32.8636 33.8551 29.7271 29.9996 29.7271ZM29.9996 42.1486C27.0058 42.1486 24.5701 39.7129 24.5701 36.7191C24.5701 33.7253 27.0058 31.2896 29.9996 31.2896C32.9934 31.2896 35.4291 33.7253 35.4291 36.7191C35.4291 39.7129 32.9934 42.1486 29.9996 42.1486Z" fill="white"/>
<path d="M29.9997 33.2109C28.0652 33.2109 26.4915 34.7848 26.4915 36.7191C26.4915 37.1505 26.8412 37.5004 27.2727 37.5004C27.7041 37.5004 28.054 37.1505 28.054 36.7191C28.054 35.6463 28.9268 34.7734 29.9997 34.7734C30.4311 34.7734 30.7809 34.4236 30.7809 33.9922C30.7809 33.5608 30.4311 33.2109 29.9997 33.2109Z" fill="white"/>
<path d="M45.1557 27.1882H41.0933C40.6619 27.1882 40.312 27.5381 40.312 27.9695C40.312 28.4009 40.6619 28.7507 41.0933 28.7507H45.1557C45.5871 28.7507 45.9369 28.4009 45.9369 27.9695C45.9369 27.5381 45.5871 27.1882 45.1557 27.1882Z" fill="white"/>
<path d="M29.9995 10C29.5681 10 29.2183 10.3498 29.2183 10.7813V13.2455C29.2183 13.677 29.568 14.0268 29.9995 14.0268C30.4309 14.0268 30.7808 13.677 30.7808 13.2455V10.7813C30.7808 10.3498 30.4309 10 29.9995 10Z" fill="white"/>
<path d="M35.31 12.8523C35.0049 12.5473 34.5103 12.5473 34.2051 12.8523L32.9996 14.0578C32.6945 14.3629 32.6945 14.8576 32.9996 15.1628C33.1521 15.3153 33.3521 15.3916 33.5521 15.3916C33.7521 15.3916 33.9519 15.3153 34.1045 15.1628L35.31 13.9572C35.6151 13.6521 35.6151 13.1574 35.31 12.8523Z" fill="white"/>
<path d="M26.9996 14.0578L25.7942 12.8523C25.489 12.5473 24.9945 12.5473 24.6893 12.8523C24.3842 13.1574 24.3842 13.6521 24.6893 13.9572L25.8948 15.1627C26.0474 15.3152 26.2473 15.3915 26.4472 15.3915C26.6471 15.3915 26.8471 15.3152 26.9996 15.1627C27.3047 14.8576 27.3047 14.3629 26.9996 14.0578Z" fill="white"/>
<path d="M32.4994 19.9226H27.4995C27.0681 19.9226 26.7183 20.2725 26.7183 20.7039C26.7183 21.1353 27.0681 21.4851 27.4995 21.4851H32.4994C32.9308 21.4851 33.2807 21.1353 33.2807 20.7039C33.2807 20.2725 32.9308 19.9226 32.4994 19.9226Z" fill="white"/>
<path d="M46.6255 39.6886C46.4803 39.5432 46.2787 39.4597 46.0732 39.4597C45.8678 39.4597 45.6662 39.5432 45.5209 39.6886C45.3756 39.8347 45.292 40.0355 45.292 40.241C45.292 40.4464 45.3755 40.648 45.5209 40.7932C45.6662 40.9393 45.8678 41.0222 46.0732 41.0222C46.2787 41.0222 46.4803 40.9386 46.6255 40.7932C46.7708 40.648 46.8545 40.4464 46.8545 40.241C46.8545 40.0355 46.7709 39.8347 46.6255 39.6886Z" fill="white"/>
<defs>
<linearGradient id="paint0_linear_123_2633" x1="30" y1="0" x2="30" y2="60" gradientUnits="userSpaceOnUse">
<stop stop-color="#21D7E2"/>
<stop offset="1" stop-color="#26B7C0"/>
</linearGradient>
</defs>
</svg>
