<svg width="57" height="42" viewBox="0 0 57 42" fill="none" xmlns="http://www.w3.org/2000/svg">
<path d="M37.6012 25.7219C34.271 22.5383 30.8457 19.4497 27.2301 16.6937C27.4204 16.3136 27.6107 15.9334 27.7058 15.5533C29.7991 9.37609 24.5184 3.48401 18.0959 4.52938C12.5773 5.4322 9.38984 12.4172 12.5297 16.9788C12.7676 17.4064 13.053 17.8341 13.3861 18.2142C13.7191 18.5944 14.0521 18.927 14.4327 19.2121C13.2909 21.0177 12.1967 22.9184 11.1977 24.5815C9.77044 26.9098 8.15292 29.2856 6.96357 31.804C5.44121 31.0438 3.63338 31.2338 2.30131 32.3267C2.20616 32.4218 2.06345 32.5168 1.9683 32.6118C1.49256 32.8019 1.0644 33.182 0.778952 33.5622C-0.172528 34.8926 -0.172525 36.8883 0.350789 38.4089C1.54014 41.8301 5.63149 43.1606 8.53351 40.8322C11.2452 38.6465 10.484 34.5125 8.01019 32.4693C9.48499 30.2835 10.6743 27.8601 12.054 25.6744C13.1958 23.8212 14.5754 22.0156 15.8599 20.1149C19.2852 21.9205 23.5669 21.2078 26.0883 18.3093C28.9428 21.4454 32.1302 24.3914 35.3652 27.2899C33.7002 29.1431 33.0817 31.9941 33.7477 34.655C33.605 35.3203 33.8904 35.8905 34.4138 36.3657C34.4138 36.4132 34.4613 36.4132 34.4613 36.4607C35.175 37.7912 36.2216 38.884 37.4109 39.6443C37.8867 40.0244 38.41 40.262 38.9809 40.4521C41.9305 41.5925 45.4985 41.0698 47.9724 38.5514C51.6831 34.7976 50.3035 27.9552 45.7364 25.5793C45.4034 25.3893 45.0703 25.2467 44.6898 25.1517C46.1645 22.3007 47.2112 19.117 48.5908 16.2185C49.7802 13.7001 51.0647 11.1817 52.3967 8.71086C53.6812 8.85341 54.9657 8.42575 55.9172 7.33287C58.0105 4.86199 56.9638 0.870579 53.6812 0.11031C52.0637 -0.269825 50.3035 0.347898 49.352 1.72589C49.0666 2.15354 48.8287 2.62871 48.686 3.15139C48.3054 4.05421 48.3054 5.05206 48.6384 5.95488C49.1617 7.23784 50.2559 8.14065 51.4453 8.52079C50.0656 11.0392 48.7811 13.6051 47.5442 16.2185C46.2597 18.9745 44.6898 21.9205 43.881 24.9141C42.2159 24.5815 40.4557 24.724 38.9333 25.3418C38.4576 25.4368 38.0294 25.5318 37.6012 25.7219ZM3.11008 38.1238C2.91978 37.7912 2.72949 37.316 2.68191 36.7933C2.87221 36.7458 3.01493 36.6508 3.11008 36.5082C3.20522 36.4132 3.25279 36.3181 3.30037 36.2231C3.39552 37.0784 3.53824 37.9337 3.72853 38.789C3.49066 38.5989 3.30037 38.4089 3.11008 38.1238ZM4.5373 39.2167C4.347 37.8862 3.96641 36.5557 3.63339 35.2728C3.68097 35.0827 3.77611 34.9401 3.87126 34.7976C3.96641 34.7026 4.01398 34.6075 4.10913 34.5125C4.10913 36.033 4.44215 37.9812 5.25091 39.3117C5.06061 39.3117 4.77517 39.3117 4.5373 39.2167ZM6.86842 38.694C6.63055 38.884 6.39268 39.0266 6.15481 39.1691C5.91694 38.4564 5.53635 37.7436 5.29848 36.9834C5.01304 36.0806 4.87031 35.1777 4.72759 34.2749C5.10818 34.2274 5.48877 34.2749 5.86936 34.465C5.86936 34.5125 5.86936 34.5125 5.86936 34.56C5.86936 34.6075 5.8218 34.6075 5.8218 34.655C5.77423 34.7501 5.82179 34.8451 5.91694 34.9402C6.10723 36.1756 6.48783 37.4585 7.10629 38.4564C7.05872 38.5039 6.96357 38.5989 6.86842 38.694ZM6.63055 35.0827C7.15386 35.7004 7.48689 36.5082 7.48689 37.2685C7.20145 36.5557 6.91599 35.7955 6.63055 35.0827ZM15.6696 17.4064C15.5745 17.3114 15.4793 17.2639 15.3842 17.1689C14.5754 16.4086 14.0045 15.5533 13.7191 14.698C13.3861 12.4172 13.8618 10.0413 15.289 8.47328C16.5735 10.8016 17.2396 12.9399 17.3347 15.4582C16.7638 16.0285 16.1929 16.6937 15.6696 17.4064ZM19.0474 18.8795C18.3813 18.7844 17.7153 18.5944 17.0493 18.3093C17.0968 18.2142 17.192 18.0717 17.2396 17.9766C17.3347 18.1192 17.6202 18.1667 17.6677 17.9291C17.7629 17.5965 17.8104 17.2164 17.858 16.8362C18.0483 16.4561 18.2386 16.076 18.4289 15.6958C18.5716 15.3157 18.2862 14.9356 17.9532 14.9831C17.858 12.5597 17.0017 10.0888 15.5269 8.2832C16.0026 7.80804 16.5735 7.42791 17.2396 7.19032C18.0007 8.85341 18.6668 10.564 18.9998 12.3697C19.1425 12.9874 19.9513 18.0242 19.0474 18.8795ZM20.5697 18.8795C20.3794 18.8795 20.1891 18.927 19.9988 18.927C20.427 17.8816 20.1891 16.1235 20.1416 15.4107C19.9988 12.4647 19.2377 9.56616 17.7629 7.00025C18.1435 6.8577 18.5716 6.81018 19.0474 6.76267C19.2377 6.76267 19.4755 6.76267 19.6658 6.76267V6.81019C20.3794 8.61583 20.9979 10.4215 21.2358 12.3697C21.2358 12.9874 21.2834 17.9766 20.5697 18.8795ZM22.5203 18.3093C22.1872 18.4518 21.8542 18.5944 21.5212 18.7369C22.0921 17.454 22.0445 15.4583 22.0445 14.4129C22.0445 11.7044 21.4261 9.09099 20.0464 6.81019C20.8552 6.8577 21.6164 7.04777 22.33 7.38039C22.8533 9.42361 23.6621 11.2292 23.6621 13.415C23.6145 15.1256 23.1387 16.6937 22.5203 18.3093ZM25.6126 14.5554C25.232 15.7909 24.5659 16.7412 23.7096 17.5015C24.8038 14.3654 24.7563 10.2314 22.9484 7.66549C25.1844 8.99596 26.5165 11.7044 25.6126 14.5554ZM54.4424 6.23999C54.2521 6.47757 53.9667 6.66763 53.7288 6.76267C54.3473 5.81233 54.7279 4.62441 54.9182 3.53152C55.2512 4.38682 55.1085 5.4322 54.4424 6.23999ZM53.4434 2.29609C53.9667 2.43864 54.3473 2.72374 54.6327 3.10387C54.2997 4.05421 53.824 4.86199 53.3482 5.66978C53.2055 5.66978 53.1104 5.7173 53.0152 5.85985C52.8249 6.23998 52.587 6.5726 52.3967 6.95274C52.2065 6.90522 52.0637 6.8577 51.8734 6.81019C52.7773 5.62227 53.3482 3.86414 53.3958 2.29609C53.3958 2.24857 53.3958 2.29609 53.4434 2.29609ZM51.1122 6.33502C50.9695 6.19247 50.8268 6.09743 50.6841 5.90736C50.8268 5.76481 50.8744 5.57475 50.8744 5.38468C50.8744 4.00669 51.1598 2.20105 52.6346 2.15354C52.587 2.81877 52.5395 3.43649 52.3016 4.10173C52.0162 4.95703 51.5404 5.66978 51.1122 6.33502ZM47.6869 31.0913C48.1627 32.5643 48.1151 34.2274 47.4015 35.6529C45.7364 39.0741 40.8838 40.0245 37.9818 37.6961C38.8857 37.8387 39.7421 37.8862 40.313 37.7912C43.881 37.3635 46.9257 34.56 47.6869 31.0913ZM45.7364 28.0977C46.3073 28.5729 46.7354 29.1431 47.116 29.7608C46.6879 32.1367 45.784 34.2274 43.6907 35.7004C42.4062 36.6032 41.0266 37.1259 39.4566 37.221C38.9809 37.2685 38.1245 37.221 37.2206 37.0309C36.4119 36.1756 35.841 35.2253 35.5556 34.2274C36.6022 35.2253 38.1245 35.6529 39.5518 35.5103C42.4538 35.1777 46.2597 31.0438 45.7364 28.0977ZM43.6431 27.0048C43.881 27.0524 44.1189 27.1474 44.3567 27.2424C46.117 29.4282 43.3101 33.087 41.0741 34.1799C39.5993 34.8926 37.7915 34.8926 36.4119 33.9423C35.841 33.5146 35.4604 32.992 35.2701 32.4218C35.2225 31.8516 35.2701 31.3289 35.4128 30.7587C35.508 30.7587 35.5555 30.7112 35.6507 30.7112C36.4119 30.2835 36.8876 29.6183 37.4109 29.0005C38.4576 29.9509 39.5518 30.9012 40.5984 31.804C41.7402 32.8019 43.4053 31.1863 42.3111 30.0934C41.3596 29.1906 40.4557 28.3353 39.5042 27.4325C40.6935 26.8148 42.2159 26.6247 43.6431 27.0048Z" fill="#998AEC"/>
</svg>
