<svg width="30" height="45" viewBox="0 0 30 45" fill="none" xmlns="http://www.w3.org/2000/svg">
<path d="M4.94115 37.7844C6.58484 39.8412 8.11461 42.0789 9.90476 44.0041C9.90476 44.0205 9.92104 44.037 9.93731 44.0534C10.3116 44.4648 10.9138 45.1394 11.5159 44.9749C11.8902 44.8761 12.232 44.4648 12.5249 44.2344C13.0131 43.8724 13.5176 43.5104 14.0384 43.1649C15.3892 42.2764 16.8376 41.536 18.3836 41.1575C18.4324 41.1575 18.465 41.1575 18.5138 41.1575C19.1648 41.1904 19.7832 41.4208 20.4179 41.4701C20.9061 41.5031 21.2316 41.2892 21.2804 40.7955C22.2731 39.4628 23.1357 38.0971 24.3399 36.9288C25.0072 36.2871 25.7232 35.7112 26.4719 35.2012C26.4881 35.2012 26.4881 35.1847 26.5044 35.1847C27.4646 34.5924 28.4899 34.1152 29.5477 33.7532C29.7592 33.6709 29.9057 33.3583 29.6941 33.1938C29.3524 32.914 29.0269 32.6014 28.6689 32.3711C28.7014 32.3546 28.7177 32.3546 28.7502 32.3382C28.8316 32.3052 28.8642 32.2394 28.8642 32.1736C28.8967 32.1407 28.913 32.1078 28.913 32.0584C29.0595 32.0255 29.1734 31.861 29.0757 31.68C29.0106 31.5813 28.9455 31.4661 28.8804 31.3674H28.8967C28.9944 31.3674 29.0106 31.2357 28.9455 31.1864C28.8804 31.137 28.7991 31.1206 28.7177 31.1041C28.5712 30.8737 28.4248 30.6269 28.2946 30.3966C28.1481 30.0017 27.904 29.6397 27.6761 29.2777C27.2367 28.5702 26.7648 27.8956 26.2928 27.2209C25.3164 25.8388 24.3562 24.4731 23.3798 23.091C22.5172 21.8734 21.7361 20.4254 20.6945 19.3559C20.19 18.8294 19.3275 18.6155 18.8556 19.2078C17.6675 19.5205 16.5772 20.0141 15.6495 20.8697C15.2915 21.1988 14.8847 21.5937 14.4778 22.0215C13.2735 23.1897 12.232 24.6377 11.7275 26.2173C10.2302 25.3616 8.21225 25.4439 6.60111 25.8059C4.37155 26.316 2.3861 27.5007 0.449479 28.6689C0.237915 28.8005 0.221641 29.0638 0.368108 29.2448C0.677317 29.6068 0.970252 29.9523 1.26319 30.3143C0.774962 30.5282 0.449479 30.8573 0.0751728 31.2851C0.0100762 31.3674 -0.0387458 31.499 0.042625 31.5977C1.63749 33.6874 3.31373 35.7277 4.94115 37.7844ZM15.2427 41.6018C14.3476 42.0789 13.5014 42.6219 12.7039 43.2307C12.3784 43.4611 11.939 43.9383 11.581 44.1028C11.3369 44.2015 11.1253 44.1851 10.9138 44.1192C10.9138 44.1192 10.9138 44.1192 10.93 44.1028C11.0114 44.0041 11.0114 43.8889 10.93 43.7902C10.93 43.7902 10.93 43.7902 10.9138 43.7737C11.0602 43.7408 11.1904 43.6421 11.2718 43.494C11.4183 43.3459 11.5485 43.2143 11.7112 43.0826C12.0692 42.77 12.4598 42.5068 12.8667 42.2599C13.5827 41.8321 14.3639 41.5031 15.145 41.2233C16.5446 40.7133 18.1558 40.0386 19.6855 40.1867C19.7181 40.1867 19.7344 40.2032 19.7669 40.2032C18.172 40.3348 16.6748 40.8613 15.2427 41.6018ZM19.3438 40.9765C19.7344 40.9272 20.1412 40.8943 20.5481 40.8943C20.5806 40.9436 20.662 40.9765 20.7108 40.9765C20.3853 41.1246 19.8157 41.0588 19.3438 40.9765ZM21.1665 40.631C21.1339 40.6145 21.1014 40.6145 21.0526 40.631C21.1502 40.5158 21.2316 40.4006 21.3292 40.2855C21.2804 40.4006 21.2316 40.5158 21.1665 40.631ZM28.7828 33.3089C27.1066 33.9671 25.5605 34.8885 24.1772 36.0568C23.4611 36.6656 22.7125 37.3731 22.0616 38.1464C22.1267 38.0313 22.1918 37.9161 22.2569 37.8174C22.7776 36.9782 23.3635 36.1884 24.0145 35.4644C25.1699 34.181 26.4881 33.2102 28.0342 32.585C28.2457 32.8647 28.5061 33.095 28.7828 33.3089ZM28.3597 32.0749C28.2946 32.0913 28.2295 32.1078 28.1806 32.1243C28.1156 32.1243 28.0667 32.1407 28.0342 32.1736C26.423 32.7166 25.0235 33.8519 23.8843 35.086C22.8264 36.2213 21.5082 37.8174 21.0037 39.3969C20.9712 39.3476 20.9386 39.2982 20.9061 39.2489C21.1177 38.4426 21.7524 37.5376 22.0941 36.9946C22.6312 36.1555 23.2333 35.3657 23.9331 34.6417C24.5841 33.9671 25.3001 33.3419 26.065 32.7989C26.5695 32.4533 27.3344 31.8445 28.0505 31.5484C28.1644 31.7294 28.262 31.8939 28.3597 32.0749ZM15.1125 22.2683C15.3729 21.9886 15.6333 21.6924 15.9099 21.4127C16.6423 20.8532 17.4397 20.3761 18.3022 20.0141C18.6277 19.866 19.002 19.7179 19.3926 19.5863C19.5228 19.5534 19.653 19.5369 19.7832 19.504C19.7669 19.4875 19.7669 19.4711 19.7506 19.4711C20.6457 19.8495 21.5408 21.6101 21.9314 22.1696C22.68 23.2226 23.4123 24.2921 24.1609 25.3452C24.8444 26.3324 25.5442 27.3032 26.2277 28.2905C26.244 28.3069 26.244 28.3234 26.2603 28.3398C26.7811 29.3435 27.3344 30.3308 27.904 31.3015C27.3832 31.5484 26.8462 31.9597 26.5532 32.1572C25.4954 32.8318 24.5027 33.6545 23.6564 34.5924C22.8265 35.4809 22.1104 36.4846 21.5245 37.5541C21.2967 37.9819 20.9549 38.5249 20.7922 39.0679C20.4179 38.4591 20.0273 37.8667 19.653 37.2744C18.8067 35.958 17.9442 34.6746 17.0654 33.3912C16.2191 32.1572 15.3566 30.9396 14.4778 29.7384C13.778 28.7841 13.0782 27.6323 12.232 26.7438C12.7853 24.9832 13.9082 23.6175 15.1125 22.2683ZM11.9228 26.9083C12.5086 27.912 13.3712 28.8499 14.0384 29.7713C14.8521 30.8737 15.6333 31.9926 16.4144 33.1279C17.1956 34.2633 17.9605 35.3986 18.7091 36.5339C19.0508 37.0605 19.3926 37.587 19.7181 38.0971C19.9134 38.4097 20.1249 38.7223 20.3202 39.0514C20.3853 39.1501 20.4504 39.2653 20.5155 39.364C20.5155 39.3969 20.5318 39.4134 20.5318 39.4298C19.0508 37.2415 17.456 35.1189 15.9099 32.947C14.4453 30.8902 13.0294 28.7676 11.4834 26.7602C11.6298 26.8261 11.7763 26.859 11.9228 26.9083ZM1.18182 29.0803C2.80923 28.1095 4.48547 27.1387 6.32445 26.6286C8.04951 26.1514 9.56301 26.2831 11.1904 26.7109C12.6551 28.9486 14.2662 31.0876 15.8123 33.2596C17.3421 35.4151 18.8393 37.6364 20.4341 39.7589C17.2932 38.2781 13.2572 39.2818 10.7022 41.5031C7.7403 37.1921 4.55057 33.0621 1.18182 29.0803ZM1.11672 30.8737C1.21436 30.7421 1.32828 30.6269 1.42593 30.4953C4.56684 34.2633 7.54501 38.1793 10.3279 42.227C10.4581 42.4245 10.7185 42.4738 10.8975 42.3093C12.1343 41.1246 13.6641 40.3184 15.3403 39.9728C16.3168 39.7754 17.2444 39.7754 18.172 39.8906C18.0581 39.907 17.9442 39.9399 17.8303 39.9564C16.6911 40.2196 15.5519 40.5816 14.4615 41.0094C13.5176 41.3879 12.59 41.8321 11.7763 42.4409C11.4183 42.7042 10.6046 43.2307 10.4418 43.7573C8.84694 41.4208 6.8615 39.2653 5.10389 37.0605C4.20881 35.9416 3.31373 34.8227 2.40238 33.7038C1.93043 33.1279 1.27946 32.5356 0.921429 31.8774L0.677316 31.5648C0.742413 31.2686 0.872606 31.0383 1.11672 30.8737Z" fill="white"/>
<path d="M13.4945 18.7494C14.9801 17.5563 16.3914 16.2909 17.747 14.9532C17.8027 14.917 17.8584 14.8628 17.9141 14.7905C19.3812 12.5128 20.6439 10.1085 21.8324 7.68613C22.4081 6.5111 22.928 5.29992 23.5037 4.10682C23.578 3.94413 24.0979 3.34757 24.1908 2.96795C24.2836 2.91372 24.3393 2.84141 24.3208 2.73295C24.2836 2.46179 24.1536 2.22678 23.9679 2.00985C23.8008 1.19638 23.0209 0.455208 22.2595 0.184048C21.461 -0.105188 20.5325 -0.0509572 19.7711 0.328666C19.5111 0.364821 19.2697 0.473285 19.1212 0.672135C19.1026 0.690212 19.1212 0.726366 19.1212 0.744443C18.5641 1.30484 18.267 2.10024 17.9141 2.78718C17.3756 3.83566 16.8742 4.90222 16.3728 5.98686C15.4072 8.08383 14.4601 10.1989 13.2531 12.1693C13.1788 12.2778 13.1788 12.3862 13.2159 12.4766C13.1602 12.5128 13.1045 12.567 13.0859 12.6755C13.0674 12.7478 13.086 12.8201 13.1045 12.8743C13.086 12.9647 13.0674 13.037 13.0859 13.1274C13.1045 13.2178 13.1231 13.3082 13.1602 13.3985C13.0488 13.8143 13.0488 14.3024 12.9931 14.7182C12.826 15.9655 12.7703 17.2129 12.7703 18.4602C12.7888 18.8217 13.2345 18.9664 13.4945 18.7494ZM22.3709 1.88331C22.5938 2.00985 22.798 2.17255 23.0023 2.33525C23.1137 2.42563 23.188 2.49794 23.2808 2.58833C23.2994 2.64256 23.318 2.69679 23.318 2.75102C23.318 2.7691 23.3366 2.78718 23.3551 2.82333C22.8352 3.31142 22.6123 3.98028 22.3152 4.63106C21.7952 5.76993 21.2567 6.89072 20.6811 7.99344C19.6411 10.0362 18.4898 12.0066 17.3385 13.9951C17.1156 13.8143 16.8742 13.6336 16.6142 13.4709C16.6328 13.4528 16.6328 13.4347 16.6514 13.4166C17.8027 11.6089 18.8426 9.74694 19.734 7.79459C20.124 6.92688 20.4954 6.05917 20.8296 5.17338C21.2753 4.07067 21.591 2.85949 22.3709 1.88331ZM17.0599 6.38456C17.5056 5.37223 17.9698 4.3599 18.4527 3.34757C18.7869 2.64256 19.2883 1.90139 19.474 1.12407C19.5483 1.08791 19.6226 1.06984 19.6969 1.03368C19.7711 1.05176 19.8454 1.05176 19.9197 1.06983C20.4768 1.16022 21.0153 1.26869 21.5353 1.48561C21.721 1.55792 21.9067 1.64831 22.0924 1.75677C21.5538 2.44371 21.2567 3.20296 20.9596 4.01643C20.4954 5.24569 19.994 6.47495 19.4369 7.66805C18.954 8.69845 18.4341 9.71078 17.8956 10.705C17.5984 11.2293 17.3013 11.7535 16.9856 12.2597C16.8185 12.5489 16.6328 12.8201 16.4471 13.1093C16.3914 13.1816 16.3543 13.2539 16.3171 13.3082C15.63 12.8924 14.8501 12.5308 14.1259 12.2958C15.2586 10.3796 16.1686 8.39114 17.0599 6.38456ZM13.8287 12.6935C14.1073 12.8382 14.4044 12.9647 14.7015 13.1093C14.4416 13.0189 14.1816 12.9466 13.9216 12.8924C13.8845 12.8382 13.8473 12.7658 13.8287 12.6935C13.8287 12.7116 13.8102 12.7116 13.8287 12.6935ZM13.7916 14.917C13.8473 14.3566 14.0702 13.7059 13.9773 13.1455C14.5344 13.3443 15.0358 13.5974 15.5186 13.8686C15.5929 13.9589 15.7043 14.0313 15.8157 14.0493C16.15 14.2482 16.4657 14.4651 16.7999 14.7182C16.2243 15.2605 15.6486 15.7848 15.0729 16.309C14.813 15.8571 14.2559 15.5859 13.7173 15.5859C13.7545 15.369 13.773 15.134 13.7916 14.917Z" fill="white"/>
</svg>
