<svg width="37" height="40" viewBox="0 0 37 40" fill="none" xmlns="http://www.w3.org/2000/svg">
<path d="M34.535 38.5282C34.8899 38.6549 35.2956 38.6296 35.5998 38.4014C35.904 38.1986 36.0308 37.8183 36.0308 37.4634C36.0308 37.2859 35.9801 37.0831 35.904 36.9056C37.0195 34.7507 35.9547 31.8352 33.8251 30.4915C33.673 30.3141 33.4956 30.1366 33.3181 29.9845C33.3435 29.9592 33.3435 29.9592 33.3688 29.9338C33.5209 29.7563 33.4702 29.4775 33.2421 29.4014C33.0646 29.3761 32.8871 29.3253 32.735 29.2239C32.7097 29.1732 32.6843 29.1479 32.659 29.0972C30.7068 26.8915 30.6308 23.8239 30.2505 21.0352C29.9209 18.6014 29.3378 16.1423 28.197 13.9366C26.0674 9.80425 22.0111 7.37045 17.3463 7.85214C13.0111 8.28313 9.38574 11.1479 8.2956 15.4071C7.20547 19.6409 8.65053 24.2803 12.2252 26.8662C14.6843 28.6662 17.7012 29.4268 20.5153 30.4662C23.4815 31.5563 25.7632 33.0775 27.8421 35.4606C27.8928 35.5113 27.9688 35.5366 28.0195 35.5366C28.0449 35.562 28.0702 35.562 28.0956 35.562C29.4139 37.5394 32.3547 40.2014 34.3829 38.5282C34.4336 38.5789 34.4843 38.5535 34.535 38.5282ZM32.735 30.669C33.1153 30.8972 33.4449 31.2014 33.7744 31.531C32.8618 31.962 32.0252 32.5958 31.2139 33.1535C30.7575 33.4577 30.2505 33.762 29.7688 34.0662C30.1491 33.6352 30.504 33.2042 30.859 32.7732C31.4928 32.0887 32.1266 31.3789 32.735 30.669ZM11.8195 24.6606C10.2984 23.0887 9.48715 20.9085 9.38574 18.7282C9.23363 15.4071 10.7548 12.3902 13.3914 10.6916C12.0731 11.7817 10.9576 13.1761 10.2477 14.5451C8.59983 17.6634 9.63926 21.8972 11.9717 24.8127C11.921 24.7366 11.8702 24.7113 11.8195 24.6606ZM27.7407 33.762C25.966 30.6437 21.504 29.3253 18.3857 28.2352C17.0928 27.7789 15.7745 27.2972 14.5576 26.638C10.7801 24.0775 8.32096 18.3479 10.8055 14.3169C11.921 12.4916 13.7463 10.6155 15.7745 9.60143C16.0026 9.52538 16.2308 9.47468 16.459 9.42397C21.2252 8.43524 25.5857 10.9704 27.5632 15.331C28.704 17.8662 29.059 20.6042 29.4139 23.3423C29.6928 25.5225 30.1237 27.6775 31.4421 29.4268C31.0618 29.7817 30.7322 30.2887 30.4026 30.6944C29.059 28.7423 27.4618 26.9423 25.9914 25.0662C24.4956 23.1394 23.1012 20.6803 21.1745 19.1338C20.9463 18.9564 20.6167 19.1845 20.7435 19.4634C21.7576 21.5676 23.7097 23.2916 25.1801 25.0916C26.7773 27.0437 28.2984 29.1479 30.0223 30.9986C30.0477 31.0239 30.073 31.0493 30.0984 31.0493C29.7942 31.4042 29.3885 31.7845 29.0083 32.1901C29.0083 32.1394 28.9829 32.0887 28.9068 32.038C27.9181 31.2521 26.904 30.5676 26.0421 29.6549C25.2308 28.793 24.5209 27.8296 23.7857 26.9169C22.29 25.0662 20.7688 22.9366 18.766 21.593C18.5125 21.4155 18.1576 21.7704 18.335 22.024C19.8562 24.0268 21.8336 25.6493 23.4308 27.6268C24.9012 29.4268 26.397 31.4549 28.5266 32.5451C28.5773 32.5704 28.6026 32.5704 28.6533 32.5704C28.2984 32.9507 27.9688 33.3563 27.7407 33.762ZM28.0702 34.4465C28.0449 34.3958 28.0449 34.3704 28.0195 34.3197C28.8308 33.7873 29.4392 32.8493 30.073 32.1648L31.2646 30.8465C31.4421 30.6437 31.6195 30.4408 31.797 30.2634C31.8477 30.1873 31.9237 30.1366 31.9744 30.0606C32.0505 30.1113 32.1266 30.1366 32.2026 30.1366C32.1773 30.2127 32.1773 30.2887 32.228 30.3394C31.5942 31.0746 30.935 31.8099 30.3012 32.5451C29.6928 33.2549 28.9829 33.9394 28.4252 34.7C28.2984 34.5986 28.1716 34.5225 28.0702 34.4465ZM29.059 35.2324C29.9463 34.8775 30.7829 34.269 31.5942 33.7873C32.4561 33.2549 33.4449 32.7479 34.2308 32.0634C34.3575 32.2408 34.459 32.4183 34.5857 32.6211C33.673 33.2296 32.7604 33.838 31.8477 34.4718C31.1632 34.9282 30.4533 35.3845 29.8195 35.8915C29.566 35.6887 29.3125 35.4606 29.059 35.2324ZM30.3266 36.3225C30.9857 35.9676 31.6195 35.5366 32.228 35.131C32.735 34.8014 33.2421 34.4718 33.7491 34.1676C34.0026 34.0155 34.2561 33.838 34.5097 33.6859C34.7885 33.6098 34.9153 33.4831 34.9153 33.3056C34.9406 33.3056 34.9406 33.331 34.966 33.331H34.9913C35.2449 33.9141 35.3716 34.5225 35.3463 35.131C34.4843 35.4099 33.6984 35.8915 32.8871 36.2972C32.3547 36.576 31.7716 36.8296 31.2392 37.1338C30.935 36.8803 30.6308 36.6014 30.3266 36.3225ZM33.8759 37.6408C33.6984 37.7676 33.6223 37.9197 33.6477 38.0972C33.6477 38.0972 33.6223 38.0972 33.6223 38.1225C33.166 38.1732 32.6336 38.0465 32.2026 37.7929C32.0759 37.7169 31.9491 37.6408 31.8223 37.5394C32.2533 37.362 32.659 37.1338 33.0899 36.931C33.7998 36.6014 34.5857 36.2972 35.2702 35.8662C35.042 36.5253 34.6111 37.1338 33.8759 37.6408Z" fill="#009950"/>
<path d="M34.5604 12.0353C34.5857 11.8325 34.4083 11.6804 34.2308 11.6043C33.673 11.3762 33.0646 11.9339 32.6083 12.2128C32.0505 12.5424 31.4928 12.8973 31.0871 13.4043C30.859 13.6832 31.0618 14.0381 31.4167 13.9874C32.1012 13.886 32.7097 13.5311 33.2928 13.2015C33.8505 12.8973 34.4843 12.7198 34.5604 12.0353Z" fill="#009950"/>
<path d="M28.5519 5.44375C27.8421 5.29163 27.4618 5.90008 27.0815 6.35642C26.7266 6.78741 26.2449 7.26909 26.1181 7.82684C26.0421 8.13106 26.3209 8.51135 26.6759 8.38459C27.2336 8.15642 27.6139 7.70008 28.0449 7.3198C28.5266 6.88881 29.0843 6.58459 28.9829 5.84938C28.9068 5.64656 28.7294 5.4691 28.5519 5.44375Z" fill="#009950"/>
<path d="M18.0815 0.626846C17.9547 1.51417 17.9294 2.5536 18.2336 3.41557C18.5125 4.25219 19.6533 4.07473 19.7294 3.21276C19.8054 2.4522 19.7801 1.64093 19.8054 0.880367C19.8308 -0.108364 18.2083 -0.361885 18.0815 0.626846Z" fill="#009950"/>
<path d="M9.25897 3.00983C8.67587 2.52814 7.50968 2.95913 7.83925 3.84645C8.06742 4.48025 8.57446 4.96194 8.9801 5.49434C9.33503 5.95067 9.76601 6.53377 10.3491 6.66053C10.6787 6.73658 10.9069 6.53377 10.9322 6.20419C11.0083 5.62109 10.6026 5.06335 10.3238 4.58166C10.0195 4.04927 9.71531 3.39011 9.25897 3.00983Z" fill="#009950"/>
<path d="M6.41954 11.2493C6.57165 11.2239 6.69841 11.0465 6.67306 10.8944C6.62236 10.3366 6.21673 9.93099 5.81109 9.57606C5.43081 9.19578 4.92377 8.71409 4.39138 8.58733C3.78293 8.43522 3.07307 8.8155 3.04772 9.47465C3.02236 9.90564 3.27588 10.2606 3.68152 10.4127C3.83363 10.4634 3.96039 10.438 4.08715 10.3873C4.39138 10.5394 4.6956 10.793 4.97447 10.9197C5.48151 11.1225 5.9125 11.3507 6.41954 11.2493Z" fill="#009950"/>
<path d="M2.08434 18.1958C1.42519 18.1451 0.740684 18.1197 0.233642 18.5761C-0.146639 18.931 -0.0452304 19.6409 0.411107 19.869C0.512515 19.9197 0.613924 19.9705 0.715332 19.9958C0.918149 20.0465 1.17167 19.9958 1.34913 19.8437C1.67871 19.7423 2.13505 19.793 2.43927 19.793C2.92096 19.793 3.3266 19.793 3.75758 19.5648C4.03645 19.4127 4.0111 19.0578 3.85899 18.855C3.3773 18.3226 2.71815 18.2465 2.08434 18.1958Z" fill="#009950"/>
<path d="M4.6956 26.1564C4.36602 26.6634 4.92377 27.424 5.50687 27.2212C6.03926 27.0184 6.4956 26.6381 7.00264 26.3592C7.28151 26.2071 7.88996 25.8015 7.66179 25.3958C7.0787 24.3817 5.10124 25.4972 4.6956 26.1564Z" fill="#009950"/>
<path d="M12.3012 33.5086C12.4787 33.1537 12.6308 32.7988 12.7576 32.4438C12.9097 32.0382 12.9604 31.7847 12.7829 31.3537C12.7576 31.303 12.7069 31.303 12.6562 31.303C12.1998 31.379 12.0224 31.5819 11.7435 31.9368C11.5153 32.2157 11.3125 32.5199 11.135 32.8241C10.704 33.5593 11.9209 34.2692 12.3012 33.5086Z" fill="#009950"/>
<path d="M18.7153 32.3422C18.69 32.2155 18.5378 32.1648 18.4364 32.2155C17.4477 32.7986 17.1942 34.4465 17.3463 35.4859C17.4477 36.2465 18.69 36.069 18.69 35.3084C18.69 34.776 18.6139 34.2436 18.6646 33.7112C18.69 33.2549 18.7914 32.8239 18.7153 32.3422Z" fill="#009950"/>
<path d="M31.9237 20.1479C32.2533 20.3253 32.6082 20.2493 32.9885 20.2746C33.3688 20.3 33.7491 20.4014 34.1294 20.5028C35.042 20.7817 35.4223 19.2605 34.5096 19.0831C33.7237 18.931 32.3294 18.8549 31.797 19.5901C31.6702 19.7676 31.7463 20.0465 31.9237 20.1479Z" fill="#009950"/>
</svg>
