<svg width="126" height="25" viewBox="0 0 126 25" fill="none" xmlns="http://www.w3.org/2000/svg">
<path d="M53.8894 4.55351V6.84716C52.9449 6.30747 51.933 5.97017 50.8537 5.97017C50.2465 5.97017 49.7743 6.10509 49.437 6.37493C49.0997 6.64478 48.9648 6.98208 48.9648 7.38684C48.9648 7.7916 49.1672 8.1289 49.5045 8.39874C49.8418 8.66858 50.3814 8.93842 51.1235 9.27572C51.5957 9.4781 52.068 9.68049 52.3378 9.88287C52.6751 10.0852 53.0124 10.2876 53.3497 10.6249C53.7545 10.8948 54.0243 11.2995 54.1592 11.7043C54.3616 12.1091 54.4291 12.5813 54.4291 13.121C54.4291 14.2678 54.0243 15.1448 53.2148 15.8194C52.4727 16.5614 51.3933 16.8987 50.0441 16.8987C48.6275 16.8987 47.4132 16.6289 46.4688 16.0892V13.6606C47.5481 14.4702 48.7624 14.8075 50.0441 14.8075C50.6513 14.8075 51.056 14.6725 51.4608 14.4027C51.8656 14.1329 52.0005 13.7281 52.0005 13.2559C52.0005 13.0535 51.933 12.8511 51.8656 12.6487C51.7981 12.4464 51.5957 12.3114 51.3259 12.1091C51.056 11.9067 50.8537 11.8392 50.7187 11.7043C50.5838 11.6368 50.2465 11.5019 49.8418 11.2995C49.7068 11.2321 49.6394 11.1646 49.5719 11.1646C49.0997 10.9622 48.6949 10.7598 48.4251 10.5575C48.1553 10.3551 47.818 10.1527 47.4807 9.88287C47.1434 9.61303 46.8735 9.27572 46.7386 8.87096C46.5362 8.4662 46.4688 7.99398 46.4688 7.52176C46.4688 6.44239 46.8735 5.56541 47.683 4.89081C48.4926 4.21621 49.5719 3.87891 50.8537 3.87891C52.0005 3.94637 53.0124 4.14875 53.8894 4.55351Z" fill="white"/>
<path d="M59.2835 8.87078V13.7279C59.2835 14.1327 59.4184 14.4025 59.6208 14.6724C59.8232 14.8747 60.1605 15.0097 60.4978 15.0097C60.97 15.0097 61.4422 14.8747 61.847 14.6049V16.5612C61.3747 16.7636 60.8351 16.8985 60.1605 16.8985C58.0692 16.8985 57.0573 15.8866 57.0573 13.7954V8.87078H55.6406V7.18427H57.0573V4.89062H59.3509V7.18427H61.712V8.87078H59.2835Z" fill="white"/>
<path d="M69.6105 7.18359H71.9041V16.7629H69.6105V15.2114C69.1383 16.2907 68.1264 16.8979 66.6422 16.8979C65.6978 16.8979 64.8883 16.628 64.3486 16.0883C63.8089 15.5487 63.5391 14.7391 63.5391 13.7272V7.18359H65.8327V13.1201C65.8327 13.7272 65.9676 14.1995 66.3049 14.4693C66.5748 14.8066 66.9795 14.9415 67.5192 14.9415C68.1938 14.9415 68.666 14.7391 69.0708 14.2669C69.4081 13.7947 69.6105 13.1876 69.6105 12.2431V7.18359Z" fill="white"/>
<path d="M80.8078 3.40625H83.1014V16.7634H80.8078V15.2792C80.1332 16.3586 79.1887 16.8983 77.907 16.8983C76.6252 16.8983 75.6808 16.4261 74.9387 15.4816C74.1967 14.5372 73.8594 13.3904 73.8594 11.9737C73.8594 10.4896 74.2641 9.27529 75.0062 8.39831C75.7483 7.52132 76.7602 7.0491 77.9744 7.0491C79.1887 7.0491 80.2006 7.58878 80.8752 8.66815V3.40625H80.8078ZM78.4467 14.9419C79.1213 14.9419 79.661 14.6721 80.1332 14.1324C80.6054 13.5927 80.8078 12.8507 80.8078 11.8388C80.8078 10.8943 80.5379 10.1523 80.0657 9.68005C79.5935 9.20783 79.0538 8.93799 78.4467 8.93799C77.7721 8.93799 77.2324 9.20783 76.7602 9.74751C76.2879 10.2872 76.0856 11.0293 76.0856 11.9737C76.0856 12.8507 76.2879 13.5253 76.7602 14.065C77.2324 14.6721 77.7721 14.9419 78.4467 14.9419Z" fill="white"/>
<path d="M88.2309 16.5606L84.4531 7.18359H86.9492L88.096 10.2193C88.4333 11.0963 88.7031 11.9058 88.9055 12.513C89.1079 13.1201 89.2428 13.5249 89.3103 13.6598L89.3777 13.9296C89.5126 13.4574 89.9174 12.2431 90.592 10.2193L91.6039 7.18359H93.965L90.5245 16.4931C89.5801 19.0566 88.096 20.3383 86.1396 20.3383C85.8023 20.3383 85.465 20.3383 85.1952 20.2709V18.382C85.3976 18.4494 85.6 18.4494 85.8698 18.4494C86.9492 18.4494 87.7587 17.8423 88.2309 16.5606Z" fill="white"/>
<path d="M97.6004 3.40625V8.80307C98.1401 7.65624 99.0846 7.0491 100.501 7.0491C101.446 7.0491 102.188 7.31894 102.727 7.92608C103.267 8.53323 103.604 9.34275 103.604 10.4896V16.7634H101.311V10.8943C101.311 10.2872 101.176 9.81497 100.839 9.47767C100.501 9.14037 100.164 8.93799 99.6243 8.93799C99.0846 8.93799 98.6124 9.14037 98.1401 9.54513C97.7354 9.94989 97.4655 10.6245 97.4655 11.5689V16.6959H95.1719V3.40625H97.6004Z" fill="white"/>
<path d="M111.907 7.18359H114.201V16.7629H111.907V15.2114C111.435 16.2907 110.423 16.8979 108.939 16.8979C107.995 16.8979 107.185 16.628 106.645 16.0883C106.106 15.5487 105.836 14.7391 105.836 13.7272V7.18359H108.13V13.1201C108.13 13.7272 108.265 14.1995 108.602 14.4693C108.872 14.8066 109.276 14.9415 109.816 14.9415C110.491 14.9415 110.963 14.7391 111.368 14.2669C111.705 13.7947 111.907 13.1876 111.907 12.2431V7.18359Z" fill="white"/>
<path d="M118.992 3.40625V8.66815C119.666 7.58878 120.611 7.0491 121.893 7.0491C123.107 7.0491 124.051 7.52132 124.861 8.39831C125.603 9.27529 126.008 10.4896 126.008 11.9737C126.008 13.3229 125.67 14.4697 124.928 15.4816C124.186 16.4261 123.174 16.8983 121.96 16.8983C120.678 16.8983 119.734 16.3586 119.059 15.2792V16.7634H116.766V3.40625H118.992ZM121.353 14.9419C122.028 14.9419 122.567 14.6721 122.972 14.1324C123.444 13.5927 123.647 12.9181 123.647 12.0412C123.647 11.0967 123.444 10.3547 122.972 9.81497C122.5 9.27529 121.96 9.00545 121.353 9.00545C120.746 9.00545 120.206 9.27529 119.734 9.74751C119.262 10.2197 118.992 10.9618 118.992 11.9062C118.992 12.9181 119.194 13.6602 119.666 14.1999C120.071 14.6721 120.678 14.9419 121.353 14.9419Z" fill="white"/>
<path d="M24.6812 17.1189H0.367188V16.6227H24.6812C25.4875 16.6227 25.4875 16.3126 25.4875 16.1265V15.8164H26.0457V16.1265C26.0457 16.5607 25.7976 17.1189 24.6812 17.1189Z" fill="white"/>
<path d="M20.4097 13.1504H2.48438V13.7086H20.4097V13.1504Z" fill="white"/>
<path d="M27.8523 24.0652C27.7903 24.0652 27.7283 24.0652 27.7283 24.0652C27.6042 24.0032 27.4802 23.8792 27.4802 23.6931V20.964C27.4802 19.9095 27.046 18.8551 26.2397 18.1108C25.4333 17.3665 24.4409 16.9943 23.3245 17.0564L2.42188 17.1184V16.5602L23.3245 16.4981C24.565 16.4361 25.7435 16.8703 26.6118 17.7386C27.4802 18.607 27.9764 19.7235 27.9764 20.964V23.3209L36.0397 15.2576C36.908 14.3893 37.4042 13.2728 37.4042 12.0323C37.4042 10.1715 36.2878 8.55887 34.6131 7.81456L34.7992 7.31836C36.722 8.12469 37.9004 9.98546 37.9004 12.0323C37.9004 13.3969 37.3422 14.6994 36.4118 15.6298L28.1004 23.9412C28.0384 24.0652 27.9764 24.0652 27.8523 24.0652Z" fill="white"/>
<path d="M26.6762 24.4993H0.6875V23.9411H26.6762C27.4825 23.9411 27.4825 23.631 27.4825 23.4449V23.1348H28.0407V23.4449C28.0407 23.9411 27.7926 24.4993 26.6762 24.4993Z" fill="white"/>
<path d="M22.6391 20.4688H3.03906V21.027H22.6391V20.4688Z" fill="white"/>
<path d="M0.0620255 9.2418L9.55192 0.992408C10.1722 0.372153 11.1026 0 11.9709 0H30.6406C33.3077 0 35.4786 2.17089 35.4786 4.83799C35.4786 6.14052 34.9824 7.38103 34.052 8.24939L25.7406 16.5608C25.6785 16.6228 25.5545 16.5608 25.5545 16.4988V13.7697C25.5545 11.3507 23.5697 9.4899 21.1507 9.55192L0.248102 9.67597C0 9.67597 -0.0620255 9.36585 0.0620255 9.2418Z" fill="white"/>
</svg>
